<?xml version="1.0" encoding="utf-8" standalone="no"?>
<!DOCTYPE svg PUBLIC "-//W3C//DTD SVG 1.1//EN"
  "http://www.w3.org/Graphics/SVG/1.1/DTD/svg11.dtd">
<svg xmlns:xlink="http://www.w3.org/1999/xlink" width="648pt" height="432pt" viewBox="0 0 648 432" xmlns="http://www.w3.org/2000/svg" version="1.1">
 <metadata>
  <rdf:RDF xmlns:dc="http://purl.org/dc/elements/1.1/" xmlns:cc="http://creativecommons.org/ns#" xmlns:rdf="http://www.w3.org/1999/02/22-rdf-syntax-ns#">
   <cc:Work>
    <dc:type rdf:resource="http://purl.org/dc/dcmitype/StillImage"/>
    <dc:date>2026-05-26T19:02:07.300894</dc:date>
    <dc:format>image/svg+xml</dc:format>
    <dc:creator>
     <cc:Agent>
      <dc:title>Matplotlib v3.10.9, https://matplotlib.org/</dc:title>
     </cc:Agent>
    </dc:creator>
   </cc:Work>
  </rdf:RDF>
 </metadata>
 <defs>
  <style type="text/css">*{stroke-linejoin: round; stroke-linecap: butt}</style>
 </defs>
 <g id="figure_1">
  <g id="patch_1">
   <path d="M 0 432 
L 648 432 
L 648 0 
L 0 0 
z
" style="fill: #ffffff"/>
  </g>
  <g id="axes_1">
   <g id="patch_2">
    <path d="M 180.88 390.04 
L 637.2 390.04 
L 637.2 26.88 
L 180.88 26.88 
z
" style="fill: #ffffff"/>
   </g>
   <g id="patch_3">
    <path d="M 180.88 373.532727 
L 394.729021 373.532727 
L 394.729021 351.149985 
L 180.88 351.149985 
z
" clip-path="url(#pf5e398f2e9)" style="fill: #6b7280; opacity: 0.85; stroke: #000000; stroke-width: 0.4; stroke-linejoin: miter"/>
   </g>
   <g id="patch_4">
    <path d="M 180.88 345.554299 
L 409.363492 345.554299 
L 409.363492 323.171556 
L 180.88 323.171556 
z
" clip-path="url(#pf5e398f2e9)" style="fill: #2563eb; opacity: 0.85; stroke: #000000; stroke-width: 0.4; stroke-linejoin: miter"/>
   </g>
   <g id="patch_5">
    <path d="M 180.88 317.575871 
L 411.359703 317.575871 
L 411.359703 295.193128 
L 180.88 295.193128 
z
" clip-path="url(#pf5e398f2e9)" style="fill: #6b7280; opacity: 0.85; stroke: #000000; stroke-width: 0.4; stroke-linejoin: miter"/>
   </g>
   <g id="patch_6">
    <path d="M 180.88 289.597442 
L 415.042281 289.597442 
L 415.042281 267.2147 
L 180.88 267.2147 
z
" clip-path="url(#pf5e398f2e9)" style="fill: #6b7280; opacity: 0.85; stroke: #000000; stroke-width: 0.4; stroke-linejoin: miter"/>
   </g>
   <g id="patch_7">
    <path d="M 180.88 261.619014 
L 416.912076 261.619014 
L 416.912076 239.236271 
L 180.88 239.236271 
z
" clip-path="url(#pf5e398f2e9)" style="fill: #6b7280; opacity: 0.85; stroke: #000000; stroke-width: 0.4; stroke-linejoin: miter"/>
   </g>
   <g id="patch_8">
    <path d="M 180.88 233.640586 
L 417.353292 233.640586 
L 417.353292 211.257843 
L 180.88 211.257843 
z
" clip-path="url(#pf5e398f2e9)" style="fill: #2563eb; opacity: 0.85; stroke: #000000; stroke-width: 0.4; stroke-linejoin: miter"/>
   </g>
   <g id="patch_9">
    <path d="M 180.88 205.662157 
L 429.811431 205.662157 
L 429.811431 183.279414 
L 180.88 183.279414 
z
" clip-path="url(#pf5e398f2e9)" style="fill: #6b7280; opacity: 0.85; stroke: #000000; stroke-width: 0.4; stroke-linejoin: miter"/>
   </g>
   <g id="patch_10">
    <path d="M 180.88 177.683729 
L 430.805405 177.683729 
L 430.805405 155.300986 
L 180.88 155.300986 
z
" clip-path="url(#pf5e398f2e9)" style="fill: #6b7280; opacity: 0.85; stroke: #000000; stroke-width: 0.4; stroke-linejoin: miter"/>
   </g>
   <g id="patch_11">
    <path d="M 180.88 149.7053 
L 462.43989 149.7053 
L 462.43989 127.322558 
L 180.88 127.322558 
z
" clip-path="url(#pf5e398f2e9)" style="fill: #6b7280; opacity: 0.85; stroke: #000000; stroke-width: 0.4; stroke-linejoin: miter"/>
   </g>
   <g id="patch_12">
    <path d="M 180.88 121.726872 
L 490.661153 121.726872 
L 490.661153 99.344129 
L 180.88 99.344129 
z
" clip-path="url(#pf5e398f2e9)" style="fill: #dc2626; opacity: 0.85; stroke: #000000; stroke-width: 0.4; stroke-linejoin: miter"/>
   </g>
   <g id="patch_13">
    <path d="M 180.88 93.748444 
L 492.875492 93.748444 
L 492.875492 71.365701 
L 180.88 71.365701 
z
" clip-path="url(#pf5e398f2e9)" style="fill: #dc2626; opacity: 0.85; stroke: #000000; stroke-width: 0.4; stroke-linejoin: miter"/>
   </g>
   <g id="patch_14">
    <path d="M 180.88 65.770015 
L 492.875492 65.770015 
L 492.875492 43.387273 
L 180.88 43.387273 
z
" clip-path="url(#pf5e398f2e9)" style="fill: #dc2626; opacity: 0.85; stroke: #000000; stroke-width: 0.4; stroke-linejoin: miter"/>
   </g>
   <g id="matplotlib.axis_1">
    <g id="xtick_1">
     <g id="line2d_1">
      <path d="M 180.88 390.04 
L 180.88 26.88 
" clip-path="url(#pf5e398f2e9)" style="fill: none; stroke: #b0b0b0; stroke-opacity: 0.3; stroke-width: 0.8; stroke-linecap: square"/>
     </g>
     <g id="line2d_2">
      <defs>
       <path id="m546a984044" d="M 0 0 
L 0 3.5 
" style="stroke: #000000; stroke-width: 0.8"/>
      </defs>
      <g>
       <use xlink:href="#m546a984044" x="180.88" y="390.04" style="stroke: #000000; stroke-width: 0.8"/>
      </g>
     </g>
     <g id="text_1">
      <!-- 0.50 -->
      <g transform="translate(169.747187 404.638438) scale(0.1 -0.1)">
       <defs>
        <path id="DejaVuSans-30" d="M 2034 4250 
Q 1547 4250 1301 3770 
Q 1056 3291 1056 2328 
Q 1056 1369 1301 889 
Q 1547 409 2034 409 
Q 2525 409 2770 889 
Q 3016 1369 3016 2328 
Q 3016 3291 2770 3770 
Q 2525 4250 2034 4250 
z
M 2034 4750 
Q 2819 4750 3233 4129 
Q 3647 3509 3647 2328 
Q 3647 1150 3233 529 
Q 2819 -91 2034 -91 
Q 1250 -91 836 529 
Q 422 1150 422 2328 
Q 422 3509 836 4129 
Q 1250 4750 2034 4750 
z
" transform="scale(0.015625)"/>
        <path id="DejaVuSans-2e" d="M 684 794 
L 1344 794 
L 1344 0 
L 684 0 
L 684 794 
z
" transform="scale(0.015625)"/>
        <path id="DejaVuSans-35" d="M 691 4666 
L 3169 4666 
L 3169 4134 
L 1269 4134 
L 1269 2991 
Q 1406 3038 1543 3061 
Q 1681 3084 1819 3084 
Q 2600 3084 3056 2656 
Q 3513 2228 3513 1497 
Q 3513 744 3044 326 
Q 2575 -91 1722 -91 
Q 1428 -91 1123 -41 
Q 819 9 494 109 
L 494 744 
Q 775 591 1075 516 
Q 1375 441 1709 441 
Q 2250 441 2565 725 
Q 2881 1009 2881 1497 
Q 2881 1984 2565 2268 
Q 2250 2553 1709 2553 
Q 1456 2553 1204 2497 
Q 953 2441 691 2322 
L 691 4666 
z
" transform="scale(0.015625)"/>
       </defs>
       <use xlink:href="#DejaVuSans-30"/>
       <use xlink:href="#DejaVuSans-2e" transform="translate(63.623047 0)"/>
       <use xlink:href="#DejaVuSans-35" transform="translate(95.410156 0)"/>
       <use xlink:href="#DejaVuSans-30" transform="translate(159.033203 0)"/>
      </g>
     </g>
    </g>
    <g id="xtick_2">
     <g id="line2d_3">
      <path d="M 262.365714 390.04 
L 262.365714 26.88 
" clip-path="url(#pf5e398f2e9)" style="fill: none; stroke: #b0b0b0; stroke-opacity: 0.3; stroke-width: 0.8; stroke-linecap: square"/>
     </g>
     <g id="line2d_4">
      <g>
       <use xlink:href="#m546a984044" x="262.365714" y="390.04" style="stroke: #000000; stroke-width: 0.8"/>
      </g>
     </g>
     <g id="text_2">
      <!-- 0.55 -->
      <g transform="translate(251.232902 404.638438) scale(0.1 -0.1)">
       <use xlink:href="#DejaVuSans-30"/>
       <use xlink:href="#DejaVuSans-2e" transform="translate(63.623047 0)"/>
       <use xlink:href="#DejaVuSans-35" transform="translate(95.410156 0)"/>
       <use xlink:href="#DejaVuSans-35" transform="translate(159.033203 0)"/>
      </g>
     </g>
    </g>
    <g id="xtick_3">
     <g id="line2d_5">
      <path d="M 343.851429 390.04 
L 343.851429 26.88 
" clip-path="url(#pf5e398f2e9)" style="fill: none; stroke: #b0b0b0; stroke-opacity: 0.3; stroke-width: 0.8; stroke-linecap: square"/>
     </g>
     <g id="line2d_6">
      <g>
       <use xlink:href="#m546a984044" x="343.851429" y="390.04" style="stroke: #000000; stroke-width: 0.8"/>
      </g>
     </g>
     <g id="text_3">
      <!-- 0.60 -->
      <g transform="translate(332.718616 404.638438) scale(0.1 -0.1)">
       <defs>
        <path id="DejaVuSans-36" d="M 2113 2584 
Q 1688 2584 1439 2293 
Q 1191 2003 1191 1497 
Q 1191 994 1439 701 
Q 1688 409 2113 409 
Q 2538 409 2786 701 
Q 3034 994 3034 1497 
Q 3034 2003 2786 2293 
Q 2538 2584 2113 2584 
z
M 3366 4563 
L 3366 3988 
Q 3128 4100 2886 4159 
Q 2644 4219 2406 4219 
Q 1781 4219 1451 3797 
Q 1122 3375 1075 2522 
Q 1259 2794 1537 2939 
Q 1816 3084 2150 3084 
Q 2853 3084 3261 2657 
Q 3669 2231 3669 1497 
Q 3669 778 3244 343 
Q 2819 -91 2113 -91 
Q 1303 -91 875 529 
Q 447 1150 447 2328 
Q 447 3434 972 4092 
Q 1497 4750 2381 4750 
Q 2619 4750 2861 4703 
Q 3103 4656 3366 4563 
z
" transform="scale(0.015625)"/>
       </defs>
       <use xlink:href="#DejaVuSans-30"/>
       <use xlink:href="#DejaVuSans-2e" transform="translate(63.623047 0)"/>
       <use xlink:href="#DejaVuSans-36" transform="translate(95.410156 0)"/>
       <use xlink:href="#DejaVuSans-30" transform="translate(159.033203 0)"/>
      </g>
     </g>
    </g>
    <g id="xtick_4">
     <g id="line2d_7">
      <path d="M 425.337143 390.04 
L 425.337143 26.88 
" clip-path="url(#pf5e398f2e9)" style="fill: none; stroke: #b0b0b0; stroke-opacity: 0.3; stroke-width: 0.8; stroke-linecap: square"/>
     </g>
     <g id="line2d_8">
      <g>
       <use xlink:href="#m546a984044" x="425.337143" y="390.04" style="stroke: #000000; stroke-width: 0.8"/>
      </g>
     </g>
     <g id="text_4">
      <!-- 0.65 -->
      <g transform="translate(414.20433 404.638438) scale(0.1 -0.1)">
       <use xlink:href="#DejaVuSans-30"/>
       <use xlink:href="#DejaVuSans-2e" transform="translate(63.623047 0)"/>
       <use xlink:href="#DejaVuSans-36" transform="translate(95.410156 0)"/>
       <use xlink:href="#DejaVuSans-35" transform="translate(159.033203 0)"/>
      </g>
     </g>
    </g>
    <g id="xtick_5">
     <g id="line2d_9">
      <path d="M 506.822857 390.04 
L 506.822857 26.88 
" clip-path="url(#pf5e398f2e9)" style="fill: none; stroke: #b0b0b0; stroke-opacity: 0.3; stroke-width: 0.8; stroke-linecap: square"/>
     </g>
     <g id="line2d_10">
      <g>
       <use xlink:href="#m546a984044" x="506.822857" y="390.04" style="stroke: #000000; stroke-width: 0.8"/>
      </g>
     </g>
     <g id="text_5">
      <!-- 0.70 -->
      <g transform="translate(495.690045 404.638438) scale(0.1 -0.1)">
       <defs>
        <path id="DejaVuSans-37" d="M 525 4666 
L 3525 4666 
L 3525 4397 
L 1831 0 
L 1172 0 
L 2766 4134 
L 525 4134 
L 525 4666 
z
" transform="scale(0.015625)"/>
       </defs>
       <use xlink:href="#DejaVuSans-30"/>
       <use xlink:href="#DejaVuSans-2e" transform="translate(63.623047 0)"/>
       <use xlink:href="#DejaVuSans-37" transform="translate(95.410156 0)"/>
       <use xlink:href="#DejaVuSans-30" transform="translate(159.033203 0)"/>
      </g>
     </g>
    </g>
    <g id="xtick_6">
     <g id="line2d_11">
      <path d="M 588.308571 390.04 
L 588.308571 26.88 
" clip-path="url(#pf5e398f2e9)" style="fill: none; stroke: #b0b0b0; stroke-opacity: 0.3; stroke-width: 0.8; stroke-linecap: square"/>
     </g>
     <g id="line2d_12">
      <g>
       <use xlink:href="#m546a984044" x="588.308571" y="390.04" style="stroke: #000000; stroke-width: 0.8"/>
      </g>
     </g>
     <g id="text_6">
      <!-- 0.75 -->
      <g transform="translate(577.175759 404.638438) scale(0.1 -0.1)">
       <use xlink:href="#DejaVuSans-30"/>
       <use xlink:href="#DejaVuSans-2e" transform="translate(63.623047 0)"/>
       <use xlink:href="#DejaVuSans-37" transform="translate(95.410156 0)"/>
       <use xlink:href="#DejaVuSans-35" transform="translate(159.033203 0)"/>
      </g>
     </g>
    </g>
    <g id="text_7">
     <!-- Test ROC-AUC (with bootstrap 95% CI) -->
     <g transform="translate(313.385312 418.316562) scale(0.1 -0.1)">
      <defs>
       <path id="DejaVuSans-54" d="M -19 4666 
L 3928 4666 
L 3928 4134 
L 2272 4134 
L 2272 0 
L 1638 0 
L 1638 4134 
L -19 4134 
L -19 4666 
z
" transform="scale(0.015625)"/>
       <path id="DejaVuSans-65" d="M 3597 1894 
L 3597 1613 
L 953 1613 
Q 991 1019 1311 708 
Q 1631 397 2203 397 
Q 2534 397 2845 478 
Q 3156 559 3463 722 
L 3463 178 
Q 3153 47 2828 -22 
Q 2503 -91 2169 -91 
Q 1331 -91 842 396 
Q 353 884 353 1716 
Q 353 2575 817 3079 
Q 1281 3584 2069 3584 
Q 2775 3584 3186 3129 
Q 3597 2675 3597 1894 
z
M 3022 2063 
Q 3016 2534 2758 2815 
Q 2500 3097 2075 3097 
Q 1594 3097 1305 2825 
Q 1016 2553 972 2059 
L 3022 2063 
z
" transform="scale(0.015625)"/>
       <path id="DejaVuSans-73" d="M 2834 3397 
L 2834 2853 
Q 2591 2978 2328 3040 
Q 2066 3103 1784 3103 
Q 1356 3103 1142 2972 
Q 928 2841 928 2578 
Q 928 2378 1081 2264 
Q 1234 2150 1697 2047 
L 1894 2003 
Q 2506 1872 2764 1633 
Q 3022 1394 3022 966 
Q 3022 478 2636 193 
Q 2250 -91 1575 -91 
Q 1294 -91 989 -36 
Q 684 19 347 128 
L 347 722 
Q 666 556 975 473 
Q 1284 391 1588 391 
Q 1994 391 2212 530 
Q 2431 669 2431 922 
Q 2431 1156 2273 1281 
Q 2116 1406 1581 1522 
L 1381 1569 
Q 847 1681 609 1914 
Q 372 2147 372 2553 
Q 372 3047 722 3315 
Q 1072 3584 1716 3584 
Q 2034 3584 2315 3537 
Q 2597 3491 2834 3397 
z
" transform="scale(0.015625)"/>
       <path id="DejaVuSans-74" d="M 1172 4494 
L 1172 3500 
L 2356 3500 
L 2356 3053 
L 1172 3053 
L 1172 1153 
Q 1172 725 1289 603 
Q 1406 481 1766 481 
L 2356 481 
L 2356 0 
L 1766 0 
Q 1100 0 847 248 
Q 594 497 594 1153 
L 594 3053 
L 172 3053 
L 172 3500 
L 594 3500 
L 594 4494 
L 1172 4494 
z
" transform="scale(0.015625)"/>
       <path id="DejaVuSans-20" transform="scale(0.015625)"/>
       <path id="DejaVuSans-52" d="M 2841 2188 
Q 3044 2119 3236 1894 
Q 3428 1669 3622 1275 
L 4263 0 
L 3584 0 
L 2988 1197 
Q 2756 1666 2539 1819 
Q 2322 1972 1947 1972 
L 1259 1972 
L 1259 0 
L 628 0 
L 628 4666 
L 2053 4666 
Q 2853 4666 3247 4331 
Q 3641 3997 3641 3322 
Q 3641 2881 3436 2590 
Q 3231 2300 2841 2188 
z
M 1259 4147 
L 1259 2491 
L 2053 2491 
Q 2509 2491 2742 2702 
Q 2975 2913 2975 3322 
Q 2975 3731 2742 3939 
Q 2509 4147 2053 4147 
L 1259 4147 
z
" transform="scale(0.015625)"/>
       <path id="DejaVuSans-4f" d="M 2522 4238 
Q 1834 4238 1429 3725 
Q 1025 3213 1025 2328 
Q 1025 1447 1429 934 
Q 1834 422 2522 422 
Q 3209 422 3611 934 
Q 4013 1447 4013 2328 
Q 4013 3213 3611 3725 
Q 3209 4238 2522 4238 
z
M 2522 4750 
Q 3503 4750 4090 4092 
Q 4678 3434 4678 2328 
Q 4678 1225 4090 567 
Q 3503 -91 2522 -91 
Q 1538 -91 948 565 
Q 359 1222 359 2328 
Q 359 3434 948 4092 
Q 1538 4750 2522 4750 
z
" transform="scale(0.015625)"/>
       <path id="DejaVuSans-43" d="M 4122 4306 
L 4122 3641 
Q 3803 3938 3442 4084 
Q 3081 4231 2675 4231 
Q 1875 4231 1450 3742 
Q 1025 3253 1025 2328 
Q 1025 1406 1450 917 
Q 1875 428 2675 428 
Q 3081 428 3442 575 
Q 3803 722 4122 1019 
L 4122 359 
Q 3791 134 3420 21 
Q 3050 -91 2638 -91 
Q 1578 -91 968 557 
Q 359 1206 359 2328 
Q 359 3453 968 4101 
Q 1578 4750 2638 4750 
Q 3056 4750 3426 4639 
Q 3797 4528 4122 4306 
z
" transform="scale(0.015625)"/>
       <path id="DejaVuSans-2d" d="M 313 2009 
L 1997 2009 
L 1997 1497 
L 313 1497 
L 313 2009 
z
" transform="scale(0.015625)"/>
       <path id="DejaVuSans-41" d="M 2188 4044 
L 1331 1722 
L 3047 1722 
L 2188 4044 
z
M 1831 4666 
L 2547 4666 
L 4325 0 
L 3669 0 
L 3244 1197 
L 1141 1197 
L 716 0 
L 50 0 
L 1831 4666 
z
" transform="scale(0.015625)"/>
       <path id="DejaVuSans-55" d="M 556 4666 
L 1191 4666 
L 1191 1831 
Q 1191 1081 1462 751 
Q 1734 422 2344 422 
Q 2950 422 3222 751 
Q 3494 1081 3494 1831 
L 3494 4666 
L 4128 4666 
L 4128 1753 
Q 4128 841 3676 375 
Q 3225 -91 2344 -91 
Q 1459 -91 1007 375 
Q 556 841 556 1753 
L 556 4666 
z
" transform="scale(0.015625)"/>
       <path id="DejaVuSans-28" d="M 1984 4856 
Q 1566 4138 1362 3434 
Q 1159 2731 1159 2009 
Q 1159 1288 1364 580 
Q 1569 -128 1984 -844 
L 1484 -844 
Q 1016 -109 783 600 
Q 550 1309 550 2009 
Q 550 2706 781 3412 
Q 1013 4119 1484 4856 
L 1984 4856 
z
" transform="scale(0.015625)"/>
       <path id="DejaVuSans-77" d="M 269 3500 
L 844 3500 
L 1563 769 
L 2278 3500 
L 2956 3500 
L 3675 769 
L 4391 3500 
L 4966 3500 
L 4050 0 
L 3372 0 
L 2619 2869 
L 1863 0 
L 1184 0 
L 269 3500 
z
" transform="scale(0.015625)"/>
       <path id="DejaVuSans-69" d="M 603 3500 
L 1178 3500 
L 1178 0 
L 603 0 
L 603 3500 
z
M 603 4863 
L 1178 4863 
L 1178 4134 
L 603 4134 
L 603 4863 
z
" transform="scale(0.015625)"/>
       <path id="DejaVuSans-68" d="M 3513 2113 
L 3513 0 
L 2938 0 
L 2938 2094 
Q 2938 2591 2744 2837 
Q 2550 3084 2163 3084 
Q 1697 3084 1428 2787 
Q 1159 2491 1159 1978 
L 1159 0 
L 581 0 
L 581 4863 
L 1159 4863 
L 1159 2956 
Q 1366 3272 1645 3428 
Q 1925 3584 2291 3584 
Q 2894 3584 3203 3211 
Q 3513 2838 3513 2113 
z
" transform="scale(0.015625)"/>
       <path id="DejaVuSans-62" d="M 3116 1747 
Q 3116 2381 2855 2742 
Q 2594 3103 2138 3103 
Q 1681 3103 1420 2742 
Q 1159 2381 1159 1747 
Q 1159 1113 1420 752 
Q 1681 391 2138 391 
Q 2594 391 2855 752 
Q 3116 1113 3116 1747 
z
M 1159 2969 
Q 1341 3281 1617 3432 
Q 1894 3584 2278 3584 
Q 2916 3584 3314 3078 
Q 3713 2572 3713 1747 
Q 3713 922 3314 415 
Q 2916 -91 2278 -91 
Q 1894 -91 1617 61 
Q 1341 213 1159 525 
L 1159 0 
L 581 0 
L 581 4863 
L 1159 4863 
L 1159 2969 
z
" transform="scale(0.015625)"/>
       <path id="DejaVuSans-6f" d="M 1959 3097 
Q 1497 3097 1228 2736 
Q 959 2375 959 1747 
Q 959 1119 1226 758 
Q 1494 397 1959 397 
Q 2419 397 2687 759 
Q 2956 1122 2956 1747 
Q 2956 2369 2687 2733 
Q 2419 3097 1959 3097 
z
M 1959 3584 
Q 2709 3584 3137 3096 
Q 3566 2609 3566 1747 
Q 3566 888 3137 398 
Q 2709 -91 1959 -91 
Q 1206 -91 779 398 
Q 353 888 353 1747 
Q 353 2609 779 3096 
Q 1206 3584 1959 3584 
z
" transform="scale(0.015625)"/>
       <path id="DejaVuSans-72" d="M 2631 2963 
Q 2534 3019 2420 3045 
Q 2306 3072 2169 3072 
Q 1681 3072 1420 2755 
Q 1159 2438 1159 1844 
L 1159 0 
L 581 0 
L 581 3500 
L 1159 3500 
L 1159 2956 
Q 1341 3275 1631 3429 
Q 1922 3584 2338 3584 
Q 2397 3584 2469 3576 
Q 2541 3569 2628 3553 
L 2631 2963 
z
" transform="scale(0.015625)"/>
       <path id="DejaVuSans-61" d="M 2194 1759 
Q 1497 1759 1228 1600 
Q 959 1441 959 1056 
Q 959 750 1161 570 
Q 1363 391 1709 391 
Q 2188 391 2477 730 
Q 2766 1069 2766 1631 
L 2766 1759 
L 2194 1759 
z
M 3341 1997 
L 3341 0 
L 2766 0 
L 2766 531 
Q 2569 213 2275 61 
Q 1981 -91 1556 -91 
Q 1019 -91 701 211 
Q 384 513 384 1019 
Q 384 1609 779 1909 
Q 1175 2209 1959 2209 
L 2766 2209 
L 2766 2266 
Q 2766 2663 2505 2880 
Q 2244 3097 1772 3097 
Q 1472 3097 1187 3025 
Q 903 2953 641 2809 
L 641 3341 
Q 956 3463 1253 3523 
Q 1550 3584 1831 3584 
Q 2591 3584 2966 3190 
Q 3341 2797 3341 1997 
z
" transform="scale(0.015625)"/>
       <path id="DejaVuSans-70" d="M 1159 525 
L 1159 -1331 
L 581 -1331 
L 581 3500 
L 1159 3500 
L 1159 2969 
Q 1341 3281 1617 3432 
Q 1894 3584 2278 3584 
Q 2916 3584 3314 3078 
Q 3713 2572 3713 1747 
Q 3713 922 3314 415 
Q 2916 -91 2278 -91 
Q 1894 -91 1617 61 
Q 1341 213 1159 525 
z
M 3116 1747 
Q 3116 2381 2855 2742 
Q 2594 3103 2138 3103 
Q 1681 3103 1420 2742 
Q 1159 2381 1159 1747 
Q 1159 1113 1420 752 
Q 1681 391 2138 391 
Q 2594 391 2855 752 
Q 3116 1113 3116 1747 
z
" transform="scale(0.015625)"/>
       <path id="DejaVuSans-39" d="M 703 97 
L 703 672 
Q 941 559 1184 500 
Q 1428 441 1663 441 
Q 2288 441 2617 861 
Q 2947 1281 2994 2138 
Q 2813 1869 2534 1725 
Q 2256 1581 1919 1581 
Q 1219 1581 811 2004 
Q 403 2428 403 3163 
Q 403 3881 828 4315 
Q 1253 4750 1959 4750 
Q 2769 4750 3195 4129 
Q 3622 3509 3622 2328 
Q 3622 1225 3098 567 
Q 2575 -91 1691 -91 
Q 1453 -91 1209 -44 
Q 966 3 703 97 
z
M 1959 2075 
Q 2384 2075 2632 2365 
Q 2881 2656 2881 3163 
Q 2881 3666 2632 3958 
Q 2384 4250 1959 4250 
Q 1534 4250 1286 3958 
Q 1038 3666 1038 3163 
Q 1038 2656 1286 2365 
Q 1534 2075 1959 2075 
z
" transform="scale(0.015625)"/>
       <path id="DejaVuSans-25" d="M 4653 2053 
Q 4381 2053 4226 1822 
Q 4072 1591 4072 1178 
Q 4072 772 4226 539 
Q 4381 306 4653 306 
Q 4919 306 5073 539 
Q 5228 772 5228 1178 
Q 5228 1588 5073 1820 
Q 4919 2053 4653 2053 
z
M 4653 2450 
Q 5147 2450 5437 2106 
Q 5728 1763 5728 1178 
Q 5728 594 5436 251 
Q 5144 -91 4653 -91 
Q 4153 -91 3862 251 
Q 3572 594 3572 1178 
Q 3572 1766 3864 2108 
Q 4156 2450 4653 2450 
z
M 1428 4353 
Q 1159 4353 1004 4120 
Q 850 3888 850 3481 
Q 850 3069 1003 2837 
Q 1156 2606 1428 2606 
Q 1700 2606 1854 2837 
Q 2009 3069 2009 3481 
Q 2009 3884 1853 4118 
Q 1697 4353 1428 4353 
z
M 4250 4750 
L 4750 4750 
L 1831 -91 
L 1331 -91 
L 4250 4750 
z
M 1428 4750 
Q 1922 4750 2215 4408 
Q 2509 4066 2509 3481 
Q 2509 2891 2217 2550 
Q 1925 2209 1428 2209 
Q 931 2209 642 2551 
Q 353 2894 353 3481 
Q 353 4063 643 4406 
Q 934 4750 1428 4750 
z
" transform="scale(0.015625)"/>
       <path id="DejaVuSans-49" d="M 628 4666 
L 1259 4666 
L 1259 0 
L 628 0 
L 628 4666 
z
" transform="scale(0.015625)"/>
       <path id="DejaVuSans-29" d="M 513 4856 
L 1013 4856 
Q 1481 4119 1714 3412 
Q 1947 2706 1947 2009 
Q 1947 1309 1714 600 
Q 1481 -109 1013 -844 
L 513 -844 
Q 928 -128 1133 580 
Q 1338 1288 1338 2009 
Q 1338 2731 1133 3434 
Q 928 4138 513 4856 
z
" transform="scale(0.015625)"/>
      </defs>
      <use xlink:href="#DejaVuSans-54"/>
      <use xlink:href="#DejaVuSans-65" transform="translate(44.083984 0)"/>
      <use xlink:href="#DejaVuSans-73" transform="translate(105.607422 0)"/>
      <use xlink:href="#DejaVuSans-74" transform="translate(157.707031 0)"/>
      <use xlink:href="#DejaVuSans-20" transform="translate(196.916016 0)"/>
      <use xlink:href="#DejaVuSans-52" transform="translate(228.703125 0)"/>
      <use xlink:href="#DejaVuSans-4f" transform="translate(298.185547 0)"/>
      <use xlink:href="#DejaVuSans-43" transform="translate(376.896484 0)"/>
      <use xlink:href="#DejaVuSans-2d" transform="translate(446.720703 0)"/>
      <use xlink:href="#DejaVuSans-41" transform="translate(480.554688 0)"/>
      <use xlink:href="#DejaVuSans-55" transform="translate(548.962891 0)"/>
      <use xlink:href="#DejaVuSans-43" transform="translate(622.15625 0)"/>
      <use xlink:href="#DejaVuSans-20" transform="translate(691.980469 0)"/>
      <use xlink:href="#DejaVuSans-28" transform="translate(723.767578 0)"/>
      <use xlink:href="#DejaVuSans-77" transform="translate(762.78125 0)"/>
      <use xlink:href="#DejaVuSans-69" transform="translate(844.568359 0)"/>
      <use xlink:href="#DejaVuSans-74" transform="translate(872.351562 0)"/>
      <use xlink:href="#DejaVuSans-68" transform="translate(911.560547 0)"/>
      <use xlink:href="#DejaVuSans-20" transform="translate(974.939453 0)"/>
      <use xlink:href="#DejaVuSans-62" transform="translate(1006.726562 0)"/>
      <use xlink:href="#DejaVuSans-6f" transform="translate(1070.203125 0)"/>
      <use xlink:href="#DejaVuSans-6f" transform="translate(1131.384766 0)"/>
      <use xlink:href="#DejaVuSans-74" transform="translate(1192.566406 0)"/>
      <use xlink:href="#DejaVuSans-73" transform="translate(1231.775391 0)"/>
      <use xlink:href="#DejaVuSans-74" transform="translate(1283.875 0)"/>
      <use xlink:href="#DejaVuSans-72" transform="translate(1323.083984 0)"/>
      <use xlink:href="#DejaVuSans-61" transform="translate(1364.197266 0)"/>
      <use xlink:href="#DejaVuSans-70" transform="translate(1425.476562 0)"/>
      <use xlink:href="#DejaVuSans-20" transform="translate(1488.953125 0)"/>
      <use xlink:href="#DejaVuSans-39" transform="translate(1520.740234 0)"/>
      <use xlink:href="#DejaVuSans-35" transform="translate(1584.363281 0)"/>
      <use xlink:href="#DejaVuSans-25" transform="translate(1647.986328 0)"/>
      <use xlink:href="#DejaVuSans-20" transform="translate(1743.005859 0)"/>
      <use xlink:href="#DejaVuSans-43" transform="translate(1774.792969 0)"/>
      <use xlink:href="#DejaVuSans-49" transform="translate(1844.617188 0)"/>
      <use xlink:href="#DejaVuSans-29" transform="translate(1874.109375 0)"/>
     </g>
    </g>
   </g>
   <g id="matplotlib.axis_2">
    <g id="ytick_1">
     <g id="line2d_13">
      <defs>
       <path id="md0d5751abf" d="M 0 0 
L -3.5 0 
" style="stroke: #000000; stroke-width: 0.8"/>
      </defs>
      <g>
       <use xlink:href="#md0d5751abf" x="180.88" y="362.341356" style="stroke: #000000; stroke-width: 0.8"/>
      </g>
     </g>
     <g id="text_8">
      <!-- baselines/xgboost_structured -->
      <g transform="translate(56.145 365.380731) scale(0.08 -0.08)">
       <defs>
        <path id="DejaVuSans-6c" d="M 603 4863 
L 1178 4863 
L 1178 0 
L 603 0 
L 603 4863 
z
" transform="scale(0.015625)"/>
        <path id="DejaVuSans-6e" d="M 3513 2113 
L 3513 0 
L 2938 0 
L 2938 2094 
Q 2938 2591 2744 2837 
Q 2550 3084 2163 3084 
Q 1697 3084 1428 2787 
Q 1159 2491 1159 1978 
L 1159 0 
L 581 0 
L 581 3500 
L 1159 3500 
L 1159 2956 
Q 1366 3272 1645 3428 
Q 1925 3584 2291 3584 
Q 2894 3584 3203 3211 
Q 3513 2838 3513 2113 
z
" transform="scale(0.015625)"/>
        <path id="DejaVuSans-2f" d="M 1625 4666 
L 2156 4666 
L 531 -594 
L 0 -594 
L 1625 4666 
z
" transform="scale(0.015625)"/>
        <path id="DejaVuSans-78" d="M 3513 3500 
L 2247 1797 
L 3578 0 
L 2900 0 
L 1881 1375 
L 863 0 
L 184 0 
L 1544 1831 
L 300 3500 
L 978 3500 
L 1906 2253 
L 2834 3500 
L 3513 3500 
z
" transform="scale(0.015625)"/>
        <path id="DejaVuSans-67" d="M 2906 1791 
Q 2906 2416 2648 2759 
Q 2391 3103 1925 3103 
Q 1463 3103 1205 2759 
Q 947 2416 947 1791 
Q 947 1169 1205 825 
Q 1463 481 1925 481 
Q 2391 481 2648 825 
Q 2906 1169 2906 1791 
z
M 3481 434 
Q 3481 -459 3084 -895 
Q 2688 -1331 1869 -1331 
Q 1566 -1331 1297 -1286 
Q 1028 -1241 775 -1147 
L 775 -588 
Q 1028 -725 1275 -790 
Q 1522 -856 1778 -856 
Q 2344 -856 2625 -561 
Q 2906 -266 2906 331 
L 2906 616 
Q 2728 306 2450 153 
Q 2172 0 1784 0 
Q 1141 0 747 490 
Q 353 981 353 1791 
Q 353 2603 747 3093 
Q 1141 3584 1784 3584 
Q 2172 3584 2450 3431 
Q 2728 3278 2906 2969 
L 2906 3500 
L 3481 3500 
L 3481 434 
z
" transform="scale(0.015625)"/>
        <path id="DejaVuSans-5f" d="M 3263 -1063 
L 3263 -1509 
L -63 -1509 
L -63 -1063 
L 3263 -1063 
z
" transform="scale(0.015625)"/>
        <path id="DejaVuSans-75" d="M 544 1381 
L 544 3500 
L 1119 3500 
L 1119 1403 
Q 1119 906 1312 657 
Q 1506 409 1894 409 
Q 2359 409 2629 706 
Q 2900 1003 2900 1516 
L 2900 3500 
L 3475 3500 
L 3475 0 
L 2900 0 
L 2900 538 
Q 2691 219 2414 64 
Q 2138 -91 1772 -91 
Q 1169 -91 856 284 
Q 544 659 544 1381 
z
M 1991 3584 
L 1991 3584 
z
" transform="scale(0.015625)"/>
        <path id="DejaVuSans-63" d="M 3122 3366 
L 3122 2828 
Q 2878 2963 2633 3030 
Q 2388 3097 2138 3097 
Q 1578 3097 1268 2742 
Q 959 2388 959 1747 
Q 959 1106 1268 751 
Q 1578 397 2138 397 
Q 2388 397 2633 464 
Q 2878 531 3122 666 
L 3122 134 
Q 2881 22 2623 -34 
Q 2366 -91 2075 -91 
Q 1284 -91 818 406 
Q 353 903 353 1747 
Q 353 2603 823 3093 
Q 1294 3584 2113 3584 
Q 2378 3584 2631 3529 
Q 2884 3475 3122 3366 
z
" transform="scale(0.015625)"/>
        <path id="DejaVuSans-64" d="M 2906 2969 
L 2906 4863 
L 3481 4863 
L 3481 0 
L 2906 0 
L 2906 525 
Q 2725 213 2448 61 
Q 2172 -91 1784 -91 
Q 1150 -91 751 415 
Q 353 922 353 1747 
Q 353 2572 751 3078 
Q 1150 3584 1784 3584 
Q 2172 3584 2448 3432 
Q 2725 3281 2906 2969 
z
M 947 1747 
Q 947 1113 1208 752 
Q 1469 391 1925 391 
Q 2381 391 2643 752 
Q 2906 1113 2906 1747 
Q 2906 2381 2643 2742 
Q 2381 3103 1925 3103 
Q 1469 3103 1208 2742 
Q 947 2381 947 1747 
z
" transform="scale(0.015625)"/>
       </defs>
       <use xlink:href="#DejaVuSans-62"/>
       <use xlink:href="#DejaVuSans-61" transform="translate(63.476562 0)"/>
       <use xlink:href="#DejaVuSans-73" transform="translate(124.755859 0)"/>
       <use xlink:href="#DejaVuSans-65" transform="translate(176.855469 0)"/>
       <use xlink:href="#DejaVuSans-6c" transform="translate(238.378906 0)"/>
       <use xlink:href="#DejaVuSans-69" transform="translate(266.162109 0)"/>
       <use xlink:href="#DejaVuSans-6e" transform="translate(293.945312 0)"/>
       <use xlink:href="#DejaVuSans-65" transform="translate(357.324219 0)"/>
       <use xlink:href="#DejaVuSans-73" transform="translate(418.847656 0)"/>
       <use xlink:href="#DejaVuSans-2f" transform="translate(470.947266 0)"/>
       <use xlink:href="#DejaVuSans-78" transform="translate(504.638672 0)"/>
       <use xlink:href="#DejaVuSans-67" transform="translate(563.818359 0)"/>
       <use xlink:href="#DejaVuSans-62" transform="translate(627.294922 0)"/>
       <use xlink:href="#DejaVuSans-6f" transform="translate(690.771484 0)"/>
       <use xlink:href="#DejaVuSans-6f" transform="translate(751.953125 0)"/>
       <use xlink:href="#DejaVuSans-73" transform="translate(813.134766 0)"/>
       <use xlink:href="#DejaVuSans-74" transform="translate(865.234375 0)"/>
       <use xlink:href="#DejaVuSans-5f" transform="translate(904.443359 0)"/>
       <use xlink:href="#DejaVuSans-73" transform="translate(954.443359 0)"/>
       <use xlink:href="#DejaVuSans-74" transform="translate(1006.542969 0)"/>
       <use xlink:href="#DejaVuSans-72" transform="translate(1045.751953 0)"/>
       <use xlink:href="#DejaVuSans-75" transform="translate(1086.865234 0)"/>
       <use xlink:href="#DejaVuSans-63" transform="translate(1150.244141 0)"/>
       <use xlink:href="#DejaVuSans-74" transform="translate(1205.224609 0)"/>
       <use xlink:href="#DejaVuSans-75" transform="translate(1244.433594 0)"/>
       <use xlink:href="#DejaVuSans-72" transform="translate(1307.8125 0)"/>
       <use xlink:href="#DejaVuSans-65" transform="translate(1346.675781 0)"/>
       <use xlink:href="#DejaVuSans-64" transform="translate(1408.199219 0)"/>
      </g>
     </g>
    </g>
    <g id="ytick_2">
     <g id="line2d_14">
      <g>
       <use xlink:href="#md0d5751abf" x="180.88" y="334.362928" style="stroke: #000000; stroke-width: 0.8"/>
      </g>
     </g>
     <g id="text_9">
      <!-- transformers/wangchanberta -->
      <g transform="translate(57.225 337.402303) scale(0.08 -0.08)">
       <defs>
        <path id="DejaVuSans-66" d="M 2375 4863 
L 2375 4384 
L 1825 4384 
Q 1516 4384 1395 4259 
Q 1275 4134 1275 3809 
L 1275 3500 
L 2222 3500 
L 2222 3053 
L 1275 3053 
L 1275 0 
L 697 0 
L 697 3053 
L 147 3053 
L 147 3500 
L 697 3500 
L 697 3744 
Q 697 4328 969 4595 
Q 1241 4863 1831 4863 
L 2375 4863 
z
" transform="scale(0.015625)"/>
        <path id="DejaVuSans-6d" d="M 3328 2828 
Q 3544 3216 3844 3400 
Q 4144 3584 4550 3584 
Q 5097 3584 5394 3201 
Q 5691 2819 5691 2113 
L 5691 0 
L 5113 0 
L 5113 2094 
Q 5113 2597 4934 2840 
Q 4756 3084 4391 3084 
Q 3944 3084 3684 2787 
Q 3425 2491 3425 1978 
L 3425 0 
L 2847 0 
L 2847 2094 
Q 2847 2600 2669 2842 
Q 2491 3084 2119 3084 
Q 1678 3084 1418 2786 
Q 1159 2488 1159 1978 
L 1159 0 
L 581 0 
L 581 3500 
L 1159 3500 
L 1159 2956 
Q 1356 3278 1631 3431 
Q 1906 3584 2284 3584 
Q 2666 3584 2933 3390 
Q 3200 3197 3328 2828 
z
" transform="scale(0.015625)"/>
       </defs>
       <use xlink:href="#DejaVuSans-74"/>
       <use xlink:href="#DejaVuSans-72" transform="translate(39.208984 0)"/>
       <use xlink:href="#DejaVuSans-61" transform="translate(80.322266 0)"/>
       <use xlink:href="#DejaVuSans-6e" transform="translate(141.601562 0)"/>
       <use xlink:href="#DejaVuSans-73" transform="translate(204.980469 0)"/>
       <use xlink:href="#DejaVuSans-66" transform="translate(257.080078 0)"/>
       <use xlink:href="#DejaVuSans-6f" transform="translate(292.285156 0)"/>
       <use xlink:href="#DejaVuSans-72" transform="translate(353.466797 0)"/>
       <use xlink:href="#DejaVuSans-6d" transform="translate(392.830078 0)"/>
       <use xlink:href="#DejaVuSans-65" transform="translate(490.242188 0)"/>
       <use xlink:href="#DejaVuSans-72" transform="translate(551.765625 0)"/>
       <use xlink:href="#DejaVuSans-73" transform="translate(592.878906 0)"/>
       <use xlink:href="#DejaVuSans-2f" transform="translate(644.978516 0)"/>
       <use xlink:href="#DejaVuSans-77" transform="translate(678.669922 0)"/>
       <use xlink:href="#DejaVuSans-61" transform="translate(760.457031 0)"/>
       <use xlink:href="#DejaVuSans-6e" transform="translate(821.736328 0)"/>
       <use xlink:href="#DejaVuSans-67" transform="translate(885.115234 0)"/>
       <use xlink:href="#DejaVuSans-63" transform="translate(948.591797 0)"/>
       <use xlink:href="#DejaVuSans-68" transform="translate(1003.572266 0)"/>
       <use xlink:href="#DejaVuSans-61" transform="translate(1066.951172 0)"/>
       <use xlink:href="#DejaVuSans-6e" transform="translate(1128.230469 0)"/>
       <use xlink:href="#DejaVuSans-62" transform="translate(1191.609375 0)"/>
       <use xlink:href="#DejaVuSans-65" transform="translate(1255.085938 0)"/>
       <use xlink:href="#DejaVuSans-72" transform="translate(1316.609375 0)"/>
       <use xlink:href="#DejaVuSans-74" transform="translate(1357.722656 0)"/>
       <use xlink:href="#DejaVuSans-61" transform="translate(1396.931641 0)"/>
      </g>
     </g>
    </g>
    <g id="ytick_3">
     <g id="line2d_15">
      <g>
       <use xlink:href="#md0d5751abf" x="180.88" y="306.384499" style="stroke: #000000; stroke-width: 0.8"/>
      </g>
     </g>
     <g id="text_10">
      <!-- ablation/hpo/phaya_lr5e6_ep6 -->
      <g transform="translate(52.6225 309.423874) scale(0.08 -0.08)">
       <defs>
        <path id="DejaVuSans-79" d="M 2059 -325 
Q 1816 -950 1584 -1140 
Q 1353 -1331 966 -1331 
L 506 -1331 
L 506 -850 
L 844 -850 
Q 1081 -850 1212 -737 
Q 1344 -625 1503 -206 
L 1606 56 
L 191 3500 
L 800 3500 
L 1894 763 
L 2988 3500 
L 3597 3500 
L 2059 -325 
z
" transform="scale(0.015625)"/>
       </defs>
       <use xlink:href="#DejaVuSans-61"/>
       <use xlink:href="#DejaVuSans-62" transform="translate(61.279297 0)"/>
       <use xlink:href="#DejaVuSans-6c" transform="translate(124.755859 0)"/>
       <use xlink:href="#DejaVuSans-61" transform="translate(152.539062 0)"/>
       <use xlink:href="#DejaVuSans-74" transform="translate(213.818359 0)"/>
       <use xlink:href="#DejaVuSans-69" transform="translate(253.027344 0)"/>
       <use xlink:href="#DejaVuSans-6f" transform="translate(280.810547 0)"/>
       <use xlink:href="#DejaVuSans-6e" transform="translate(341.992188 0)"/>
       <use xlink:href="#DejaVuSans-2f" transform="translate(405.371094 0)"/>
       <use xlink:href="#DejaVuSans-68" transform="translate(439.0625 0)"/>
       <use xlink:href="#DejaVuSans-70" transform="translate(502.441406 0)"/>
       <use xlink:href="#DejaVuSans-6f" transform="translate(565.917969 0)"/>
       <use xlink:href="#DejaVuSans-2f" transform="translate(627.099609 0)"/>
       <use xlink:href="#DejaVuSans-70" transform="translate(660.791016 0)"/>
       <use xlink:href="#DejaVuSans-68" transform="translate(724.267578 0)"/>
       <use xlink:href="#DejaVuSans-61" transform="translate(787.646484 0)"/>
       <use xlink:href="#DejaVuSans-79" transform="translate(848.925781 0)"/>
       <use xlink:href="#DejaVuSans-61" transform="translate(908.105469 0)"/>
       <use xlink:href="#DejaVuSans-5f" transform="translate(969.384766 0)"/>
       <use xlink:href="#DejaVuSans-6c" transform="translate(1019.384766 0)"/>
       <use xlink:href="#DejaVuSans-72" transform="translate(1047.167969 0)"/>
       <use xlink:href="#DejaVuSans-35" transform="translate(1088.28125 0)"/>
       <use xlink:href="#DejaVuSans-65" transform="translate(1151.904297 0)"/>
       <use xlink:href="#DejaVuSans-36" transform="translate(1213.427734 0)"/>
       <use xlink:href="#DejaVuSans-5f" transform="translate(1277.050781 0)"/>
       <use xlink:href="#DejaVuSans-65" transform="translate(1327.050781 0)"/>
       <use xlink:href="#DejaVuSans-70" transform="translate(1388.574219 0)"/>
       <use xlink:href="#DejaVuSans-36" transform="translate(1452.050781 0)"/>
      </g>
     </g>
    </g>
    <g id="ytick_4">
     <g id="line2d_16">
      <g>
       <use xlink:href="#md0d5751abf" x="180.88" y="278.406071" style="stroke: #000000; stroke-width: 0.8"/>
      </g>
     </g>
     <g id="text_11">
      <!-- ablation/hpo/phaya_lr2e5_ep4 -->
      <g transform="translate(52.6225 281.445446) scale(0.08 -0.08)">
       <defs>
        <path id="DejaVuSans-32" d="M 1228 531 
L 3431 531 
L 3431 0 
L 469 0 
L 469 531 
Q 828 903 1448 1529 
Q 2069 2156 2228 2338 
Q 2531 2678 2651 2914 
Q 2772 3150 2772 3378 
Q 2772 3750 2511 3984 
Q 2250 4219 1831 4219 
Q 1534 4219 1204 4116 
Q 875 4013 500 3803 
L 500 4441 
Q 881 4594 1212 4672 
Q 1544 4750 1819 4750 
Q 2544 4750 2975 4387 
Q 3406 4025 3406 3419 
Q 3406 3131 3298 2873 
Q 3191 2616 2906 2266 
Q 2828 2175 2409 1742 
Q 1991 1309 1228 531 
z
" transform="scale(0.015625)"/>
        <path id="DejaVuSans-34" d="M 2419 4116 
L 825 1625 
L 2419 1625 
L 2419 4116 
z
M 2253 4666 
L 3047 4666 
L 3047 1625 
L 3713 1625 
L 3713 1100 
L 3047 1100 
L 3047 0 
L 2419 0 
L 2419 1100 
L 313 1100 
L 313 1709 
L 2253 4666 
z
" transform="scale(0.015625)"/>
       </defs>
       <use xlink:href="#DejaVuSans-61"/>
       <use xlink:href="#DejaVuSans-62" transform="translate(61.279297 0)"/>
       <use xlink:href="#DejaVuSans-6c" transform="translate(124.755859 0)"/>
       <use xlink:href="#DejaVuSans-61" transform="translate(152.539062 0)"/>
       <use xlink:href="#DejaVuSans-74" transform="translate(213.818359 0)"/>
       <use xlink:href="#DejaVuSans-69" transform="translate(253.027344 0)"/>
       <use xlink:href="#DejaVuSans-6f" transform="translate(280.810547 0)"/>
       <use xlink:href="#DejaVuSans-6e" transform="translate(341.992188 0)"/>
       <use xlink:href="#DejaVuSans-2f" transform="translate(405.371094 0)"/>
       <use xlink:href="#DejaVuSans-68" transform="translate(439.0625 0)"/>
       <use xlink:href="#DejaVuSans-70" transform="translate(502.441406 0)"/>
       <use xlink:href="#DejaVuSans-6f" transform="translate(565.917969 0)"/>
       <use xlink:href="#DejaVuSans-2f" transform="translate(627.099609 0)"/>
       <use xlink:href="#DejaVuSans-70" transform="translate(660.791016 0)"/>
       <use xlink:href="#DejaVuSans-68" transform="translate(724.267578 0)"/>
       <use xlink:href="#DejaVuSans-61" transform="translate(787.646484 0)"/>
       <use xlink:href="#DejaVuSans-79" transform="translate(848.925781 0)"/>
       <use xlink:href="#DejaVuSans-61" transform="translate(908.105469 0)"/>
       <use xlink:href="#DejaVuSans-5f" transform="translate(969.384766 0)"/>
       <use xlink:href="#DejaVuSans-6c" transform="translate(1019.384766 0)"/>
       <use xlink:href="#DejaVuSans-72" transform="translate(1047.167969 0)"/>
       <use xlink:href="#DejaVuSans-32" transform="translate(1088.28125 0)"/>
       <use xlink:href="#DejaVuSans-65" transform="translate(1151.904297 0)"/>
       <use xlink:href="#DejaVuSans-35" transform="translate(1213.427734 0)"/>
       <use xlink:href="#DejaVuSans-5f" transform="translate(1277.050781 0)"/>
       <use xlink:href="#DejaVuSans-65" transform="translate(1327.050781 0)"/>
       <use xlink:href="#DejaVuSans-70" transform="translate(1388.574219 0)"/>
       <use xlink:href="#DejaVuSans-34" transform="translate(1452.050781 0)"/>
      </g>
     </g>
    </g>
    <g id="ytick_5">
     <g id="line2d_17">
      <g>
       <use xlink:href="#md0d5751abf" x="180.88" y="250.427643" style="stroke: #000000; stroke-width: 0.8"/>
      </g>
     </g>
     <g id="text_12">
      <!-- ablation/hpo/phaya_lr1e5_ep6 -->
      <g transform="translate(52.6225 253.467018) scale(0.08 -0.08)">
       <defs>
        <path id="DejaVuSans-31" d="M 794 531 
L 1825 531 
L 1825 4091 
L 703 3866 
L 703 4441 
L 1819 4666 
L 2450 4666 
L 2450 531 
L 3481 531 
L 3481 0 
L 794 0 
L 794 531 
z
" transform="scale(0.015625)"/>
       </defs>
       <use xlink:href="#DejaVuSans-61"/>
       <use xlink:href="#DejaVuSans-62" transform="translate(61.279297 0)"/>
       <use xlink:href="#DejaVuSans-6c" transform="translate(124.755859 0)"/>
       <use xlink:href="#DejaVuSans-61" transform="translate(152.539062 0)"/>
       <use xlink:href="#DejaVuSans-74" transform="translate(213.818359 0)"/>
       <use xlink:href="#DejaVuSans-69" transform="translate(253.027344 0)"/>
       <use xlink:href="#DejaVuSans-6f" transform="translate(280.810547 0)"/>
       <use xlink:href="#DejaVuSans-6e" transform="translate(341.992188 0)"/>
       <use xlink:href="#DejaVuSans-2f" transform="translate(405.371094 0)"/>
       <use xlink:href="#DejaVuSans-68" transform="translate(439.0625 0)"/>
       <use xlink:href="#DejaVuSans-70" transform="translate(502.441406 0)"/>
       <use xlink:href="#DejaVuSans-6f" transform="translate(565.917969 0)"/>
       <use xlink:href="#DejaVuSans-2f" transform="translate(627.099609 0)"/>
       <use xlink:href="#DejaVuSans-70" transform="translate(660.791016 0)"/>
       <use xlink:href="#DejaVuSans-68" transform="translate(724.267578 0)"/>
       <use xlink:href="#DejaVuSans-61" transform="translate(787.646484 0)"/>
       <use xlink:href="#DejaVuSans-79" transform="translate(848.925781 0)"/>
       <use xlink:href="#DejaVuSans-61" transform="translate(908.105469 0)"/>
       <use xlink:href="#DejaVuSans-5f" transform="translate(969.384766 0)"/>
       <use xlink:href="#DejaVuSans-6c" transform="translate(1019.384766 0)"/>
       <use xlink:href="#DejaVuSans-72" transform="translate(1047.167969 0)"/>
       <use xlink:href="#DejaVuSans-31" transform="translate(1088.28125 0)"/>
       <use xlink:href="#DejaVuSans-65" transform="translate(1151.904297 0)"/>
       <use xlink:href="#DejaVuSans-35" transform="translate(1213.427734 0)"/>
       <use xlink:href="#DejaVuSans-5f" transform="translate(1277.050781 0)"/>
       <use xlink:href="#DejaVuSans-65" transform="translate(1327.050781 0)"/>
       <use xlink:href="#DejaVuSans-70" transform="translate(1388.574219 0)"/>
       <use xlink:href="#DejaVuSans-36" transform="translate(1452.050781 0)"/>
      </g>
     </g>
    </g>
    <g id="ytick_6">
     <g id="line2d_18">
      <g>
       <use xlink:href="#md0d5751abf" x="180.88" y="222.449214" style="stroke: #000000; stroke-width: 0.8"/>
      </g>
     </g>
     <g id="text_13">
      <!-- transformers/phayathaibert -->
      <g transform="translate(63.1425 225.488589) scale(0.08 -0.08)">
       <use xlink:href="#DejaVuSans-74"/>
       <use xlink:href="#DejaVuSans-72" transform="translate(39.208984 0)"/>
       <use xlink:href="#DejaVuSans-61" transform="translate(80.322266 0)"/>
       <use xlink:href="#DejaVuSans-6e" transform="translate(141.601562 0)"/>
       <use xlink:href="#DejaVuSans-73" transform="translate(204.980469 0)"/>
       <use xlink:href="#DejaVuSans-66" transform="translate(257.080078 0)"/>
       <use xlink:href="#DejaVuSans-6f" transform="translate(292.285156 0)"/>
       <use xlink:href="#DejaVuSans-72" transform="translate(353.466797 0)"/>
       <use xlink:href="#DejaVuSans-6d" transform="translate(392.830078 0)"/>
       <use xlink:href="#DejaVuSans-65" transform="translate(490.242188 0)"/>
       <use xlink:href="#DejaVuSans-72" transform="translate(551.765625 0)"/>
       <use xlink:href="#DejaVuSans-73" transform="translate(592.878906 0)"/>
       <use xlink:href="#DejaVuSans-2f" transform="translate(644.978516 0)"/>
       <use xlink:href="#DejaVuSans-70" transform="translate(678.669922 0)"/>
       <use xlink:href="#DejaVuSans-68" transform="translate(742.146484 0)"/>
       <use xlink:href="#DejaVuSans-61" transform="translate(805.525391 0)"/>
       <use xlink:href="#DejaVuSans-79" transform="translate(866.804688 0)"/>
       <use xlink:href="#DejaVuSans-61" transform="translate(925.984375 0)"/>
       <use xlink:href="#DejaVuSans-74" transform="translate(987.263672 0)"/>
       <use xlink:href="#DejaVuSans-68" transform="translate(1026.472656 0)"/>
       <use xlink:href="#DejaVuSans-61" transform="translate(1089.851562 0)"/>
       <use xlink:href="#DejaVuSans-69" transform="translate(1151.130859 0)"/>
       <use xlink:href="#DejaVuSans-62" transform="translate(1178.914062 0)"/>
       <use xlink:href="#DejaVuSans-65" transform="translate(1242.390625 0)"/>
       <use xlink:href="#DejaVuSans-72" transform="translate(1303.914062 0)"/>
       <use xlink:href="#DejaVuSans-74" transform="translate(1345.027344 0)"/>
      </g>
     </g>
    </g>
    <g id="ytick_7">
     <g id="line2d_19">
      <g>
       <use xlink:href="#md0d5751abf" x="180.88" y="194.470786" style="stroke: #000000; stroke-width: 0.8"/>
      </g>
     </g>
     <g id="text_14">
      <!-- baselines/lightgbm_structured -->
      <g transform="translate(52.45125 197.510161) scale(0.08 -0.08)">
       <use xlink:href="#DejaVuSans-62"/>
       <use xlink:href="#DejaVuSans-61" transform="translate(63.476562 0)"/>
       <use xlink:href="#DejaVuSans-73" transform="translate(124.755859 0)"/>
       <use xlink:href="#DejaVuSans-65" transform="translate(176.855469 0)"/>
       <use xlink:href="#DejaVuSans-6c" transform="translate(238.378906 0)"/>
       <use xlink:href="#DejaVuSans-69" transform="translate(266.162109 0)"/>
       <use xlink:href="#DejaVuSans-6e" transform="translate(293.945312 0)"/>
       <use xlink:href="#DejaVuSans-65" transform="translate(357.324219 0)"/>
       <use xlink:href="#DejaVuSans-73" transform="translate(418.847656 0)"/>
       <use xlink:href="#DejaVuSans-2f" transform="translate(470.947266 0)"/>
       <use xlink:href="#DejaVuSans-6c" transform="translate(504.638672 0)"/>
       <use xlink:href="#DejaVuSans-69" transform="translate(532.421875 0)"/>
       <use xlink:href="#DejaVuSans-67" transform="translate(560.205078 0)"/>
       <use xlink:href="#DejaVuSans-68" transform="translate(623.681641 0)"/>
       <use xlink:href="#DejaVuSans-74" transform="translate(687.060547 0)"/>
       <use xlink:href="#DejaVuSans-67" transform="translate(726.269531 0)"/>
       <use xlink:href="#DejaVuSans-62" transform="translate(789.746094 0)"/>
       <use xlink:href="#DejaVuSans-6d" transform="translate(853.222656 0)"/>
       <use xlink:href="#DejaVuSans-5f" transform="translate(950.634766 0)"/>
       <use xlink:href="#DejaVuSans-73" transform="translate(1000.634766 0)"/>
       <use xlink:href="#DejaVuSans-74" transform="translate(1052.734375 0)"/>
       <use xlink:href="#DejaVuSans-72" transform="translate(1091.943359 0)"/>
       <use xlink:href="#DejaVuSans-75" transform="translate(1133.056641 0)"/>
       <use xlink:href="#DejaVuSans-63" transform="translate(1196.435547 0)"/>
       <use xlink:href="#DejaVuSans-74" transform="translate(1251.416016 0)"/>
       <use xlink:href="#DejaVuSans-75" transform="translate(1290.625 0)"/>
       <use xlink:href="#DejaVuSans-72" transform="translate(1354.003906 0)"/>
       <use xlink:href="#DejaVuSans-65" transform="translate(1392.867188 0)"/>
       <use xlink:href="#DejaVuSans-64" transform="translate(1454.390625 0)"/>
      </g>
     </g>
    </g>
    <g id="ytick_8">
     <g id="line2d_20">
      <g>
       <use xlink:href="#md0d5751abf" x="180.88" y="166.492357" style="stroke: #000000; stroke-width: 0.8"/>
      </g>
     </g>
     <g id="text_15">
      <!-- baselines/xgboost_structured_plus_tfidf -->
      <g transform="translate(15.53625 169.531732) scale(0.08 -0.08)">
       <use xlink:href="#DejaVuSans-62"/>
       <use xlink:href="#DejaVuSans-61" transform="translate(63.476562 0)"/>
       <use xlink:href="#DejaVuSans-73" transform="translate(124.755859 0)"/>
       <use xlink:href="#DejaVuSans-65" transform="translate(176.855469 0)"/>
       <use xlink:href="#DejaVuSans-6c" transform="translate(238.378906 0)"/>
       <use xlink:href="#DejaVuSans-69" transform="translate(266.162109 0)"/>
       <use xlink:href="#DejaVuSans-6e" transform="translate(293.945312 0)"/>
       <use xlink:href="#DejaVuSans-65" transform="translate(357.324219 0)"/>
       <use xlink:href="#DejaVuSans-73" transform="translate(418.847656 0)"/>
       <use xlink:href="#DejaVuSans-2f" transform="translate(470.947266 0)"/>
       <use xlink:href="#DejaVuSans-78" transform="translate(504.638672 0)"/>
       <use xlink:href="#DejaVuSans-67" transform="translate(563.818359 0)"/>
       <use xlink:href="#DejaVuSans-62" transform="translate(627.294922 0)"/>
       <use xlink:href="#DejaVuSans-6f" transform="translate(690.771484 0)"/>
       <use xlink:href="#DejaVuSans-6f" transform="translate(751.953125 0)"/>
       <use xlink:href="#DejaVuSans-73" transform="translate(813.134766 0)"/>
       <use xlink:href="#DejaVuSans-74" transform="translate(865.234375 0)"/>
       <use xlink:href="#DejaVuSans-5f" transform="translate(904.443359 0)"/>
       <use xlink:href="#DejaVuSans-73" transform="translate(954.443359 0)"/>
       <use xlink:href="#DejaVuSans-74" transform="translate(1006.542969 0)"/>
       <use xlink:href="#DejaVuSans-72" transform="translate(1045.751953 0)"/>
       <use xlink:href="#DejaVuSans-75" transform="translate(1086.865234 0)"/>
       <use xlink:href="#DejaVuSans-63" transform="translate(1150.244141 0)"/>
       <use xlink:href="#DejaVuSans-74" transform="translate(1205.224609 0)"/>
       <use xlink:href="#DejaVuSans-75" transform="translate(1244.433594 0)"/>
       <use xlink:href="#DejaVuSans-72" transform="translate(1307.8125 0)"/>
       <use xlink:href="#DejaVuSans-65" transform="translate(1346.675781 0)"/>
       <use xlink:href="#DejaVuSans-64" transform="translate(1408.199219 0)"/>
       <use xlink:href="#DejaVuSans-5f" transform="translate(1471.675781 0)"/>
       <use xlink:href="#DejaVuSans-70" transform="translate(1521.675781 0)"/>
       <use xlink:href="#DejaVuSans-6c" transform="translate(1585.152344 0)"/>
       <use xlink:href="#DejaVuSans-75" transform="translate(1612.935547 0)"/>
       <use xlink:href="#DejaVuSans-73" transform="translate(1676.314453 0)"/>
       <use xlink:href="#DejaVuSans-5f" transform="translate(1728.414062 0)"/>
       <use xlink:href="#DejaVuSans-74" transform="translate(1778.414062 0)"/>
       <use xlink:href="#DejaVuSans-66" transform="translate(1817.623047 0)"/>
       <use xlink:href="#DejaVuSans-69" transform="translate(1852.828125 0)"/>
       <use xlink:href="#DejaVuSans-64" transform="translate(1880.611328 0)"/>
       <use xlink:href="#DejaVuSans-66" transform="translate(1944.087891 0)"/>
      </g>
     </g>
    </g>
    <g id="ytick_9">
     <g id="line2d_21">
      <g>
       <use xlink:href="#md0d5751abf" x="180.88" y="138.513929" style="stroke: #000000; stroke-width: 0.8"/>
      </g>
     </g>
     <g id="text_16">
      <!-- baselines/lightgbm_structured_plus_tfidf -->
      <g transform="translate(11.8425 141.553304) scale(0.08 -0.08)">
       <use xlink:href="#DejaVuSans-62"/>
       <use xlink:href="#DejaVuSans-61" transform="translate(63.476562 0)"/>
       <use xlink:href="#DejaVuSans-73" transform="translate(124.755859 0)"/>
       <use xlink:href="#DejaVuSans-65" transform="translate(176.855469 0)"/>
       <use xlink:href="#DejaVuSans-6c" transform="translate(238.378906 0)"/>
       <use xlink:href="#DejaVuSans-69" transform="translate(266.162109 0)"/>
       <use xlink:href="#DejaVuSans-6e" transform="translate(293.945312 0)"/>
       <use xlink:href="#DejaVuSans-65" transform="translate(357.324219 0)"/>
       <use xlink:href="#DejaVuSans-73" transform="translate(418.847656 0)"/>
       <use xlink:href="#DejaVuSans-2f" transform="translate(470.947266 0)"/>
       <use xlink:href="#DejaVuSans-6c" transform="translate(504.638672 0)"/>
       <use xlink:href="#DejaVuSans-69" transform="translate(532.421875 0)"/>
       <use xlink:href="#DejaVuSans-67" transform="translate(560.205078 0)"/>
       <use xlink:href="#DejaVuSans-68" transform="translate(623.681641 0)"/>
       <use xlink:href="#DejaVuSans-74" transform="translate(687.060547 0)"/>
       <use xlink:href="#DejaVuSans-67" transform="translate(726.269531 0)"/>
       <use xlink:href="#DejaVuSans-62" transform="translate(789.746094 0)"/>
       <use xlink:href="#DejaVuSans-6d" transform="translate(853.222656 0)"/>
       <use xlink:href="#DejaVuSans-5f" transform="translate(950.634766 0)"/>
       <use xlink:href="#DejaVuSans-73" transform="translate(1000.634766 0)"/>
       <use xlink:href="#DejaVuSans-74" transform="translate(1052.734375 0)"/>
       <use xlink:href="#DejaVuSans-72" transform="translate(1091.943359 0)"/>
       <use xlink:href="#DejaVuSans-75" transform="translate(1133.056641 0)"/>
       <use xlink:href="#DejaVuSans-63" transform="translate(1196.435547 0)"/>
       <use xlink:href="#DejaVuSans-74" transform="translate(1251.416016 0)"/>
       <use xlink:href="#DejaVuSans-75" transform="translate(1290.625 0)"/>
       <use xlink:href="#DejaVuSans-72" transform="translate(1354.003906 0)"/>
       <use xlink:href="#DejaVuSans-65" transform="translate(1392.867188 0)"/>
       <use xlink:href="#DejaVuSans-64" transform="translate(1454.390625 0)"/>
       <use xlink:href="#DejaVuSans-5f" transform="translate(1517.867188 0)"/>
       <use xlink:href="#DejaVuSans-70" transform="translate(1567.867188 0)"/>
       <use xlink:href="#DejaVuSans-6c" transform="translate(1631.34375 0)"/>
       <use xlink:href="#DejaVuSans-75" transform="translate(1659.126953 0)"/>
       <use xlink:href="#DejaVuSans-73" transform="translate(1722.505859 0)"/>
       <use xlink:href="#DejaVuSans-5f" transform="translate(1774.605469 0)"/>
       <use xlink:href="#DejaVuSans-74" transform="translate(1824.605469 0)"/>
       <use xlink:href="#DejaVuSans-66" transform="translate(1863.814453 0)"/>
       <use xlink:href="#DejaVuSans-69" transform="translate(1899.019531 0)"/>
       <use xlink:href="#DejaVuSans-64" transform="translate(1926.802734 0)"/>
       <use xlink:href="#DejaVuSans-66" transform="translate(1990.279297 0)"/>
      </g>
     </g>
    </g>
    <g id="ytick_10">
     <g id="line2d_22">
      <g>
       <use xlink:href="#md0d5751abf" x="180.88" y="110.535501" style="stroke: #000000; stroke-width: 0.8"/>
      </g>
     </g>
     <g id="text_17">
      <!-- stacking/stacking_lr_pruned -->
      <g transform="translate(61.9475 113.574876) scale(0.08 -0.08)">
       <defs>
        <path id="DejaVuSans-6b" d="M 581 4863 
L 1159 4863 
L 1159 1991 
L 2875 3500 
L 3609 3500 
L 1753 1863 
L 3688 0 
L 2938 0 
L 1159 1709 
L 1159 0 
L 581 0 
L 581 4863 
z
" transform="scale(0.015625)"/>
       </defs>
       <use xlink:href="#DejaVuSans-73"/>
       <use xlink:href="#DejaVuSans-74" transform="translate(52.099609 0)"/>
       <use xlink:href="#DejaVuSans-61" transform="translate(91.308594 0)"/>
       <use xlink:href="#DejaVuSans-63" transform="translate(152.587891 0)"/>
       <use xlink:href="#DejaVuSans-6b" transform="translate(207.568359 0)"/>
       <use xlink:href="#DejaVuSans-69" transform="translate(265.478516 0)"/>
       <use xlink:href="#DejaVuSans-6e" transform="translate(293.261719 0)"/>
       <use xlink:href="#DejaVuSans-67" transform="translate(356.640625 0)"/>
       <use xlink:href="#DejaVuSans-2f" transform="translate(420.117188 0)"/>
       <use xlink:href="#DejaVuSans-73" transform="translate(453.808594 0)"/>
       <use xlink:href="#DejaVuSans-74" transform="translate(505.908203 0)"/>
       <use xlink:href="#DejaVuSans-61" transform="translate(545.117188 0)"/>
       <use xlink:href="#DejaVuSans-63" transform="translate(606.396484 0)"/>
       <use xlink:href="#DejaVuSans-6b" transform="translate(661.376953 0)"/>
       <use xlink:href="#DejaVuSans-69" transform="translate(719.287109 0)"/>
       <use xlink:href="#DejaVuSans-6e" transform="translate(747.070312 0)"/>
       <use xlink:href="#DejaVuSans-67" transform="translate(810.449219 0)"/>
       <use xlink:href="#DejaVuSans-5f" transform="translate(873.925781 0)"/>
       <use xlink:href="#DejaVuSans-6c" transform="translate(923.925781 0)"/>
       <use xlink:href="#DejaVuSans-72" transform="translate(951.708984 0)"/>
       <use xlink:href="#DejaVuSans-5f" transform="translate(992.822266 0)"/>
       <use xlink:href="#DejaVuSans-70" transform="translate(1042.822266 0)"/>
       <use xlink:href="#DejaVuSans-72" transform="translate(1106.298828 0)"/>
       <use xlink:href="#DejaVuSans-75" transform="translate(1147.412109 0)"/>
       <use xlink:href="#DejaVuSans-6e" transform="translate(1210.791016 0)"/>
       <use xlink:href="#DejaVuSans-65" transform="translate(1274.169922 0)"/>
       <use xlink:href="#DejaVuSans-64" transform="translate(1335.693359 0)"/>
      </g>
     </g>
    </g>
    <g id="ytick_11">
     <g id="line2d_23">
      <g>
       <use xlink:href="#md0d5751abf" x="180.88" y="82.557072" style="stroke: #000000; stroke-width: 0.8"/>
      </g>
     </g>
     <g id="text_18">
      <!-- stacking/stacking_lr -->
      <g transform="translate(94.45625 85.596447) scale(0.08 -0.08)">
       <use xlink:href="#DejaVuSans-73"/>
       <use xlink:href="#DejaVuSans-74" transform="translate(52.099609 0)"/>
       <use xlink:href="#DejaVuSans-61" transform="translate(91.308594 0)"/>
       <use xlink:href="#DejaVuSans-63" transform="translate(152.587891 0)"/>
       <use xlink:href="#DejaVuSans-6b" transform="translate(207.568359 0)"/>
       <use xlink:href="#DejaVuSans-69" transform="translate(265.478516 0)"/>
       <use xlink:href="#DejaVuSans-6e" transform="translate(293.261719 0)"/>
       <use xlink:href="#DejaVuSans-67" transform="translate(356.640625 0)"/>
       <use xlink:href="#DejaVuSans-2f" transform="translate(420.117188 0)"/>
       <use xlink:href="#DejaVuSans-73" transform="translate(453.808594 0)"/>
       <use xlink:href="#DejaVuSans-74" transform="translate(505.908203 0)"/>
       <use xlink:href="#DejaVuSans-61" transform="translate(545.117188 0)"/>
       <use xlink:href="#DejaVuSans-63" transform="translate(606.396484 0)"/>
       <use xlink:href="#DejaVuSans-6b" transform="translate(661.376953 0)"/>
       <use xlink:href="#DejaVuSans-69" transform="translate(719.287109 0)"/>
       <use xlink:href="#DejaVuSans-6e" transform="translate(747.070312 0)"/>
       <use xlink:href="#DejaVuSans-67" transform="translate(810.449219 0)"/>
       <use xlink:href="#DejaVuSans-5f" transform="translate(873.925781 0)"/>
       <use xlink:href="#DejaVuSans-6c" transform="translate(923.925781 0)"/>
       <use xlink:href="#DejaVuSans-72" transform="translate(951.708984 0)"/>
      </g>
     </g>
    </g>
    <g id="ytick_12">
     <g id="line2d_24">
      <g>
       <use xlink:href="#md0d5751abf" x="180.88" y="54.578644" style="stroke: #000000; stroke-width: 0.8"/>
      </g>
     </g>
     <g id="text_19">
      <!-- stacking/stacking_lr_calibrated -->
      <g transform="translate(50.3025 57.618019) scale(0.08 -0.08)">
       <use xlink:href="#DejaVuSans-73"/>
       <use xlink:href="#DejaVuSans-74" transform="translate(52.099609 0)"/>
       <use xlink:href="#DejaVuSans-61" transform="translate(91.308594 0)"/>
       <use xlink:href="#DejaVuSans-63" transform="translate(152.587891 0)"/>
       <use xlink:href="#DejaVuSans-6b" transform="translate(207.568359 0)"/>
       <use xlink:href="#DejaVuSans-69" transform="translate(265.478516 0)"/>
       <use xlink:href="#DejaVuSans-6e" transform="translate(293.261719 0)"/>
       <use xlink:href="#DejaVuSans-67" transform="translate(356.640625 0)"/>
       <use xlink:href="#DejaVuSans-2f" transform="translate(420.117188 0)"/>
       <use xlink:href="#DejaVuSans-73" transform="translate(453.808594 0)"/>
       <use xlink:href="#DejaVuSans-74" transform="translate(505.908203 0)"/>
       <use xlink:href="#DejaVuSans-61" transform="translate(545.117188 0)"/>
       <use xlink:href="#DejaVuSans-63" transform="translate(606.396484 0)"/>
       <use xlink:href="#DejaVuSans-6b" transform="translate(661.376953 0)"/>
       <use xlink:href="#DejaVuSans-69" transform="translate(719.287109 0)"/>
       <use xlink:href="#DejaVuSans-6e" transform="translate(747.070312 0)"/>
       <use xlink:href="#DejaVuSans-67" transform="translate(810.449219 0)"/>
       <use xlink:href="#DejaVuSans-5f" transform="translate(873.925781 0)"/>
       <use xlink:href="#DejaVuSans-6c" transform="translate(923.925781 0)"/>
       <use xlink:href="#DejaVuSans-72" transform="translate(951.708984 0)"/>
       <use xlink:href="#DejaVuSans-5f" transform="translate(992.822266 0)"/>
       <use xlink:href="#DejaVuSans-63" transform="translate(1042.822266 0)"/>
       <use xlink:href="#DejaVuSans-61" transform="translate(1097.802734 0)"/>
       <use xlink:href="#DejaVuSans-6c" transform="translate(1159.082031 0)"/>
       <use xlink:href="#DejaVuSans-69" transform="translate(1186.865234 0)"/>
       <use xlink:href="#DejaVuSans-62" transform="translate(1214.648438 0)"/>
       <use xlink:href="#DejaVuSans-72" transform="translate(1278.125 0)"/>
       <use xlink:href="#DejaVuSans-61" transform="translate(1319.238281 0)"/>
       <use xlink:href="#DejaVuSans-74" transform="translate(1380.517578 0)"/>
       <use xlink:href="#DejaVuSans-65" transform="translate(1419.726562 0)"/>
       <use xlink:href="#DejaVuSans-64" transform="translate(1481.25 0)"/>
      </g>
     </g>
    </g>
   </g>
   <g id="LineCollection_1">
    <path d="M 344.151591 362.341356 
L 444.746963 362.341356 
" clip-path="url(#pf5e398f2e9)" style="fill: none; stroke: #000000; stroke-width: 1.5"/>
    <path d="M 360.159753 334.362928 
L 457.727092 334.362928 
" clip-path="url(#pf5e398f2e9)" style="fill: none; stroke: #000000; stroke-width: 1.5"/>
    <path d="M 362.192225 306.384499 
L 461.484027 306.384499 
" clip-path="url(#pf5e398f2e9)" style="fill: none; stroke: #000000; stroke-width: 1.5"/>
    <path d="M 363.652575 278.406071 
L 466.23758 278.406071 
" clip-path="url(#pf5e398f2e9)" style="fill: none; stroke: #000000; stroke-width: 1.5"/>
    <path d="M 363.662776 250.427643 
L 466.686354 250.427643 
" clip-path="url(#pf5e398f2e9)" style="fill: none; stroke: #000000; stroke-width: 1.5"/>
    <path d="M 367.208168 222.449214 
L 467.219221 222.449214 
" clip-path="url(#pf5e398f2e9)" style="fill: none; stroke: #000000; stroke-width: 1.5"/>
    <path d="M 381.792382 194.470786 
L 479.065844 194.470786 
" clip-path="url(#pf5e398f2e9)" style="fill: none; stroke: #000000; stroke-width: 1.5"/>
    <path d="M 381.400634 166.492357 
L 478.723952 166.492357 
" clip-path="url(#pf5e398f2e9)" style="fill: none; stroke: #000000; stroke-width: 1.5"/>
    <path d="M 413.860597 138.513929 
L 507.194622 138.513929 
" clip-path="url(#pf5e398f2e9)" style="fill: none; stroke: #000000; stroke-width: 1.5"/>
    <path d="M 443.528946 110.535501 
L 534.121483 110.535501 
" clip-path="url(#pf5e398f2e9)" style="fill: none; stroke: #000000; stroke-width: 1.5"/>
    <path d="M 445.742505 82.557072 
L 535.172488 82.557072 
" clip-path="url(#pf5e398f2e9)" style="fill: none; stroke: #000000; stroke-width: 1.5"/>
    <path d="M 445.742505 54.578644 
L 535.172488 54.578644 
" clip-path="url(#pf5e398f2e9)" style="fill: none; stroke: #000000; stroke-width: 1.5"/>
   </g>
   <g id="line2d_25">
    <defs>
     <path id="md982afeaf8" d="M 0 3 
L 0 -3 
" style="stroke: #000000"/>
    </defs>
    <g clip-path="url(#pf5e398f2e9)">
     <use xlink:href="#md982afeaf8" x="344.151591" y="362.341356" style="fill: #1f77b4; stroke: #000000"/>
     <use xlink:href="#md982afeaf8" x="360.159753" y="334.362928" style="fill: #1f77b4; stroke: #000000"/>
     <use xlink:href="#md982afeaf8" x="362.192225" y="306.384499" style="fill: #1f77b4; stroke: #000000"/>
     <use xlink:href="#md982afeaf8" x="363.652575" y="278.406071" style="fill: #1f77b4; stroke: #000000"/>
     <use xlink:href="#md982afeaf8" x="363.662776" y="250.427643" style="fill: #1f77b4; stroke: #000000"/>
     <use xlink:href="#md982afeaf8" x="367.208168" y="222.449214" style="fill: #1f77b4; stroke: #000000"/>
     <use xlink:href="#md982afeaf8" x="381.792382" y="194.470786" style="fill: #1f77b4; stroke: #000000"/>
     <use xlink:href="#md982afeaf8" x="381.400634" y="166.492357" style="fill: #1f77b4; stroke: #000000"/>
     <use xlink:href="#md982afeaf8" x="413.860597" y="138.513929" style="fill: #1f77b4; stroke: #000000"/>
     <use xlink:href="#md982afeaf8" x="443.528946" y="110.535501" style="fill: #1f77b4; stroke: #000000"/>
     <use xlink:href="#md982afeaf8" x="445.742505" y="82.557072" style="fill: #1f77b4; stroke: #000000"/>
     <use xlink:href="#md982afeaf8" x="445.742505" y="54.578644" style="fill: #1f77b4; stroke: #000000"/>
    </g>
   </g>
   <g id="line2d_26">
    <g clip-path="url(#pf5e398f2e9)">
     <use xlink:href="#md982afeaf8" x="444.746963" y="362.341356" style="fill: #1f77b4; stroke: #000000"/>
     <use xlink:href="#md982afeaf8" x="457.727092" y="334.362928" style="fill: #1f77b4; stroke: #000000"/>
     <use xlink:href="#md982afeaf8" x="461.484027" y="306.384499" style="fill: #1f77b4; stroke: #000000"/>
     <use xlink:href="#md982afeaf8" x="466.23758" y="278.406071" style="fill: #1f77b4; stroke: #000000"/>
     <use xlink:href="#md982afeaf8" x="466.686354" y="250.427643" style="fill: #1f77b4; stroke: #000000"/>
     <use xlink:href="#md982afeaf8" x="467.219221" y="222.449214" style="fill: #1f77b4; stroke: #000000"/>
     <use xlink:href="#md982afeaf8" x="479.065844" y="194.470786" style="fill: #1f77b4; stroke: #000000"/>
     <use xlink:href="#md982afeaf8" x="478.723952" y="166.492357" style="fill: #1f77b4; stroke: #000000"/>
     <use xlink:href="#md982afeaf8" x="507.194622" y="138.513929" style="fill: #1f77b4; stroke: #000000"/>
     <use xlink:href="#md982afeaf8" x="534.121483" y="110.535501" style="fill: #1f77b4; stroke: #000000"/>
     <use xlink:href="#md982afeaf8" x="535.172488" y="82.557072" style="fill: #1f77b4; stroke: #000000"/>
     <use xlink:href="#md982afeaf8" x="535.172488" y="54.578644" style="fill: #1f77b4; stroke: #000000"/>
    </g>
   </g>
   <g id="line2d_27">
    <path d="M 180.88 390.04 
L 180.88 26.88 
" clip-path="url(#pf5e398f2e9)" style="fill: none; stroke-dasharray: 2.96,1.28; stroke-dashoffset: 0; stroke: #808080; stroke-opacity: 0.6; stroke-width: 0.8"/>
   </g>
   <g id="patch_15">
    <path d="M 180.88 390.04 
L 180.88 26.88 
" style="fill: none; stroke: #000000; stroke-width: 0.8; stroke-linejoin: miter; stroke-linecap: square"/>
   </g>
   <g id="patch_16">
    <path d="M 637.2 390.04 
L 637.2 26.88 
" style="fill: none; stroke: #000000; stroke-width: 0.8; stroke-linejoin: miter; stroke-linecap: square"/>
   </g>
   <g id="patch_17">
    <path d="M 180.88 390.04 
L 637.2 390.04 
" style="fill: none; stroke: #000000; stroke-width: 0.8; stroke-linejoin: miter; stroke-linecap: square"/>
   </g>
   <g id="patch_18">
    <path d="M 180.88 26.88 
L 637.2 26.88 
" style="fill: none; stroke: #000000; stroke-width: 0.8; stroke-linejoin: miter; stroke-linecap: square"/>
   </g>
   <g id="text_20">
    <!-- 0.6312 -->
    <g transform="translate(402.877592 364.548856) scale(0.08 -0.08)">
     <defs>
      <path id="DejaVuSans-33" d="M 2597 2516 
Q 3050 2419 3304 2112 
Q 3559 1806 3559 1356 
Q 3559 666 3084 287 
Q 2609 -91 1734 -91 
Q 1441 -91 1130 -33 
Q 819 25 488 141 
L 488 750 
Q 750 597 1062 519 
Q 1375 441 1716 441 
Q 2309 441 2620 675 
Q 2931 909 2931 1356 
Q 2931 1769 2642 2001 
Q 2353 2234 1838 2234 
L 1294 2234 
L 1294 2753 
L 1863 2753 
Q 2328 2753 2575 2939 
Q 2822 3125 2822 3475 
Q 2822 3834 2567 4026 
Q 2313 4219 1838 4219 
Q 1578 4219 1281 4162 
Q 984 4106 628 3988 
L 628 4550 
Q 988 4650 1302 4700 
Q 1616 4750 1894 4750 
Q 2613 4750 3031 4423 
Q 3450 4097 3450 3541 
Q 3450 3153 3228 2886 
Q 3006 2619 2597 2516 
z
" transform="scale(0.015625)"/>
     </defs>
     <use xlink:href="#DejaVuSans-30"/>
     <use xlink:href="#DejaVuSans-2e" transform="translate(63.623047 0)"/>
     <use xlink:href="#DejaVuSans-36" transform="translate(95.410156 0)"/>
     <use xlink:href="#DejaVuSans-33" transform="translate(159.033203 0)"/>
     <use xlink:href="#DejaVuSans-31" transform="translate(222.65625 0)"/>
     <use xlink:href="#DejaVuSans-32" transform="translate(286.279297 0)"/>
    </g>
   </g>
   <g id="text_21">
    <!-- 0.6402 -->
    <g transform="translate(417.512063 336.570428) scale(0.08 -0.08)">
     <use xlink:href="#DejaVuSans-30"/>
     <use xlink:href="#DejaVuSans-2e" transform="translate(63.623047 0)"/>
     <use xlink:href="#DejaVuSans-36" transform="translate(95.410156 0)"/>
     <use xlink:href="#DejaVuSans-34" transform="translate(159.033203 0)"/>
     <use xlink:href="#DejaVuSans-30" transform="translate(222.65625 0)"/>
     <use xlink:href="#DejaVuSans-32" transform="translate(286.279297 0)"/>
    </g>
   </g>
   <g id="text_22">
    <!-- 0.6414 -->
    <g transform="translate(419.508274 308.591999) scale(0.08 -0.08)">
     <use xlink:href="#DejaVuSans-30"/>
     <use xlink:href="#DejaVuSans-2e" transform="translate(63.623047 0)"/>
     <use xlink:href="#DejaVuSans-36" transform="translate(95.410156 0)"/>
     <use xlink:href="#DejaVuSans-34" transform="translate(159.033203 0)"/>
     <use xlink:href="#DejaVuSans-31" transform="translate(222.65625 0)"/>
     <use xlink:href="#DejaVuSans-34" transform="translate(286.279297 0)"/>
    </g>
   </g>
   <g id="text_23">
    <!-- 0.6437 -->
    <g transform="translate(423.190853 280.613571) scale(0.08 -0.08)">
     <use xlink:href="#DejaVuSans-30"/>
     <use xlink:href="#DejaVuSans-2e" transform="translate(63.623047 0)"/>
     <use xlink:href="#DejaVuSans-36" transform="translate(95.410156 0)"/>
     <use xlink:href="#DejaVuSans-34" transform="translate(159.033203 0)"/>
     <use xlink:href="#DejaVuSans-33" transform="translate(222.65625 0)"/>
     <use xlink:href="#DejaVuSans-37" transform="translate(286.279297 0)"/>
    </g>
   </g>
   <g id="text_24">
    <!-- 0.6448 -->
    <g transform="translate(425.060648 252.635143) scale(0.08 -0.08)">
     <defs>
      <path id="DejaVuSans-38" d="M 2034 2216 
Q 1584 2216 1326 1975 
Q 1069 1734 1069 1313 
Q 1069 891 1326 650 
Q 1584 409 2034 409 
Q 2484 409 2743 651 
Q 3003 894 3003 1313 
Q 3003 1734 2745 1975 
Q 2488 2216 2034 2216 
z
M 1403 2484 
Q 997 2584 770 2862 
Q 544 3141 544 3541 
Q 544 4100 942 4425 
Q 1341 4750 2034 4750 
Q 2731 4750 3128 4425 
Q 3525 4100 3525 3541 
Q 3525 3141 3298 2862 
Q 3072 2584 2669 2484 
Q 3125 2378 3379 2068 
Q 3634 1759 3634 1313 
Q 3634 634 3220 271 
Q 2806 -91 2034 -91 
Q 1263 -91 848 271 
Q 434 634 434 1313 
Q 434 1759 690 2068 
Q 947 2378 1403 2484 
z
M 1172 3481 
Q 1172 3119 1398 2916 
Q 1625 2713 2034 2713 
Q 2441 2713 2670 2916 
Q 2900 3119 2900 3481 
Q 2900 3844 2670 4047 
Q 2441 4250 2034 4250 
Q 1625 4250 1398 4047 
Q 1172 3844 1172 3481 
z
" transform="scale(0.015625)"/>
     </defs>
     <use xlink:href="#DejaVuSans-30"/>
     <use xlink:href="#DejaVuSans-2e" transform="translate(63.623047 0)"/>
     <use xlink:href="#DejaVuSans-36" transform="translate(95.410156 0)"/>
     <use xlink:href="#DejaVuSans-34" transform="translate(159.033203 0)"/>
     <use xlink:href="#DejaVuSans-34" transform="translate(222.65625 0)"/>
     <use xlink:href="#DejaVuSans-38" transform="translate(286.279297 0)"/>
    </g>
   </g>
   <g id="text_25">
    <!-- 0.6451 -->
    <g transform="translate(425.501863 224.656714) scale(0.08 -0.08)">
     <use xlink:href="#DejaVuSans-30"/>
     <use xlink:href="#DejaVuSans-2e" transform="translate(63.623047 0)"/>
     <use xlink:href="#DejaVuSans-36" transform="translate(95.410156 0)"/>
     <use xlink:href="#DejaVuSans-34" transform="translate(159.033203 0)"/>
     <use xlink:href="#DejaVuSans-35" transform="translate(222.65625 0)"/>
     <use xlink:href="#DejaVuSans-31" transform="translate(286.279297 0)"/>
    </g>
   </g>
   <g id="text_26">
    <!-- 0.6527 -->
    <g transform="translate(437.960002 196.678286) scale(0.08 -0.08)">
     <use xlink:href="#DejaVuSans-30"/>
     <use xlink:href="#DejaVuSans-2e" transform="translate(63.623047 0)"/>
     <use xlink:href="#DejaVuSans-36" transform="translate(95.410156 0)"/>
     <use xlink:href="#DejaVuSans-35" transform="translate(159.033203 0)"/>
     <use xlink:href="#DejaVuSans-32" transform="translate(222.65625 0)"/>
     <use xlink:href="#DejaVuSans-37" transform="translate(286.279297 0)"/>
    </g>
   </g>
   <g id="text_27">
    <!-- 0.6534 -->
    <g transform="translate(438.953976 168.699857) scale(0.08 -0.08)">
     <use xlink:href="#DejaVuSans-30"/>
     <use xlink:href="#DejaVuSans-2e" transform="translate(63.623047 0)"/>
     <use xlink:href="#DejaVuSans-36" transform="translate(95.410156 0)"/>
     <use xlink:href="#DejaVuSans-35" transform="translate(159.033203 0)"/>
     <use xlink:href="#DejaVuSans-33" transform="translate(222.65625 0)"/>
     <use xlink:href="#DejaVuSans-34" transform="translate(286.279297 0)"/>
    </g>
   </g>
   <g id="text_28">
    <!-- 0.6728 -->
    <g transform="translate(470.588462 140.721429) scale(0.08 -0.08)">
     <use xlink:href="#DejaVuSans-30"/>
     <use xlink:href="#DejaVuSans-2e" transform="translate(63.623047 0)"/>
     <use xlink:href="#DejaVuSans-36" transform="translate(95.410156 0)"/>
     <use xlink:href="#DejaVuSans-37" transform="translate(159.033203 0)"/>
     <use xlink:href="#DejaVuSans-32" transform="translate(222.65625 0)"/>
     <use xlink:href="#DejaVuSans-38" transform="translate(286.279297 0)"/>
    </g>
   </g>
   <g id="text_29">
    <!-- 0.6901 -->
    <g transform="translate(498.809724 112.743001) scale(0.08 -0.08)">
     <use xlink:href="#DejaVuSans-30"/>
     <use xlink:href="#DejaVuSans-2e" transform="translate(63.623047 0)"/>
     <use xlink:href="#DejaVuSans-36" transform="translate(95.410156 0)"/>
     <use xlink:href="#DejaVuSans-39" transform="translate(159.033203 0)"/>
     <use xlink:href="#DejaVuSans-30" transform="translate(222.65625 0)"/>
     <use xlink:href="#DejaVuSans-31" transform="translate(286.279297 0)"/>
    </g>
   </g>
   <g id="text_30">
    <!-- 0.6914 -->
    <g transform="translate(501.024064 84.764572) scale(0.08 -0.08)">
     <use xlink:href="#DejaVuSans-30"/>
     <use xlink:href="#DejaVuSans-2e" transform="translate(63.623047 0)"/>
     <use xlink:href="#DejaVuSans-36" transform="translate(95.410156 0)"/>
     <use xlink:href="#DejaVuSans-39" transform="translate(159.033203 0)"/>
     <use xlink:href="#DejaVuSans-31" transform="translate(222.65625 0)"/>
     <use xlink:href="#DejaVuSans-34" transform="translate(286.279297 0)"/>
    </g>
   </g>
   <g id="text_31">
    <!-- 0.6914 -->
    <g transform="translate(501.024064 56.786144) scale(0.08 -0.08)">
     <use xlink:href="#DejaVuSans-30"/>
     <use xlink:href="#DejaVuSans-2e" transform="translate(63.623047 0)"/>
     <use xlink:href="#DejaVuSans-36" transform="translate(95.410156 0)"/>
     <use xlink:href="#DejaVuSans-39" transform="translate(159.033203 0)"/>
     <use xlink:href="#DejaVuSans-31" transform="translate(222.65625 0)"/>
     <use xlink:href="#DejaVuSans-34" transform="translate(286.279297 0)"/>
    </g>
   </g>
   <g id="text_32">
    <!-- Model leaderboard on the time-aware test set -->
    <g transform="translate(271.235937 20.88) scale(0.12 -0.12)">
     <defs>
      <path id="DejaVuSans-4d" d="M 628 4666 
L 1569 4666 
L 2759 1491 
L 3956 4666 
L 4897 4666 
L 4897 0 
L 4281 0 
L 4281 4097 
L 3078 897 
L 2444 897 
L 1241 4097 
L 1241 0 
L 628 0 
L 628 4666 
z
" transform="scale(0.015625)"/>
     </defs>
     <use xlink:href="#DejaVuSans-4d"/>
     <use xlink:href="#DejaVuSans-6f" transform="translate(86.279297 0)"/>
     <use xlink:href="#DejaVuSans-64" transform="translate(147.460938 0)"/>
     <use xlink:href="#DejaVuSans-65" transform="translate(210.9375 0)"/>
     <use xlink:href="#DejaVuSans-6c" transform="translate(272.460938 0)"/>
     <use xlink:href="#DejaVuSans-20" transform="translate(300.244141 0)"/>
     <use xlink:href="#DejaVuSans-6c" transform="translate(332.03125 0)"/>
     <use xlink:href="#DejaVuSans-65" transform="translate(359.814453 0)"/>
     <use xlink:href="#DejaVuSans-61" transform="translate(421.337891 0)"/>
     <use xlink:href="#DejaVuSans-64" transform="translate(482.617188 0)"/>
     <use xlink:href="#DejaVuSans-65" transform="translate(546.09375 0)"/>
     <use xlink:href="#DejaVuSans-72" transform="translate(607.617188 0)"/>
     <use xlink:href="#DejaVuSans-62" transform="translate(648.730469 0)"/>
     <use xlink:href="#DejaVuSans-6f" transform="translate(712.207031 0)"/>
     <use xlink:href="#DejaVuSans-61" transform="translate(773.388672 0)"/>
     <use xlink:href="#DejaVuSans-72" transform="translate(834.667969 0)"/>
     <use xlink:href="#DejaVuSans-64" transform="translate(874.03125 0)"/>
     <use xlink:href="#DejaVuSans-20" transform="translate(937.507812 0)"/>
     <use xlink:href="#DejaVuSans-6f" transform="translate(969.294922 0)"/>
     <use xlink:href="#DejaVuSans-6e" transform="translate(1030.476562 0)"/>
     <use xlink:href="#DejaVuSans-20" transform="translate(1093.855469 0)"/>
     <use xlink:href="#DejaVuSans-74" transform="translate(1125.642578 0)"/>
     <use xlink:href="#DejaVuSans-68" transform="translate(1164.851562 0)"/>
     <use xlink:href="#DejaVuSans-65" transform="translate(1228.230469 0)"/>
     <use xlink:href="#DejaVuSans-20" transform="translate(1289.753906 0)"/>
     <use xlink:href="#DejaVuSans-74" transform="translate(1321.541016 0)"/>
     <use xlink:href="#DejaVuSans-69" transform="translate(1360.75 0)"/>
     <use xlink:href="#DejaVuSans-6d" transform="translate(1388.533203 0)"/>
     <use xlink:href="#DejaVuSans-65" transform="translate(1485.945312 0)"/>
     <use xlink:href="#DejaVuSans-2d" transform="translate(1547.46875 0)"/>
     <use xlink:href="#DejaVuSans-61" transform="translate(1583.552734 0)"/>
     <use xlink:href="#DejaVuSans-77" transform="translate(1644.832031 0)"/>
     <use xlink:href="#DejaVuSans-61" transform="translate(1726.619141 0)"/>
     <use xlink:href="#DejaVuSans-72" transform="translate(1787.898438 0)"/>
     <use xlink:href="#DejaVuSans-65" transform="translate(1826.761719 0)"/>
     <use xlink:href="#DejaVuSans-20" transform="translate(1888.285156 0)"/>
     <use xlink:href="#DejaVuSans-74" transform="translate(1920.072266 0)"/>
     <use xlink:href="#DejaVuSans-65" transform="translate(1959.28125 0)"/>
     <use xlink:href="#DejaVuSans-73" transform="translate(2020.804688 0)"/>
     <use xlink:href="#DejaVuSans-74" transform="translate(2072.904297 0)"/>
     <use xlink:href="#DejaVuSans-20" transform="translate(2112.113281 0)"/>
     <use xlink:href="#DejaVuSans-73" transform="translate(2143.900391 0)"/>
     <use xlink:href="#DejaVuSans-65" transform="translate(2196 0)"/>
     <use xlink:href="#DejaVuSans-74" transform="translate(2257.523438 0)"/>
    </g>
   </g>
   <g id="legend_1">
    <g id="patch_19">
     <path d="M 553.465 386.04 
L 631.6 386.04 
Q 633.2 386.04 633.2 384.44 
L 633.2 373.4975 
Q 633.2 371.8975 631.6 371.8975 
L 553.465 371.8975 
Q 551.865 371.8975 551.865 373.4975 
L 551.865 384.44 
Q 551.865 386.04 553.465 386.04 
z
" style="fill: #ffffff; opacity: 0.8; stroke: #cccccc; stroke-linejoin: miter"/>
    </g>
    <g id="line2d_28">
     <path d="M 555.065 378.37625 
L 563.065 378.37625 
L 571.065 378.37625 
" style="fill: none; stroke-dasharray: 2.96,1.28; stroke-dashoffset: 0; stroke: #808080; stroke-opacity: 0.6; stroke-width: 0.8"/>
    </g>
    <g id="text_33">
     <!-- random (0.5) -->
     <g transform="translate(577.465 381.17625) scale(0.08 -0.08)">
      <use xlink:href="#DejaVuSans-72"/>
      <use xlink:href="#DejaVuSans-61" transform="translate(41.113281 0)"/>
      <use xlink:href="#DejaVuSans-6e" transform="translate(102.392578 0)"/>
      <use xlink:href="#DejaVuSans-64" transform="translate(165.771484 0)"/>
      <use xlink:href="#DejaVuSans-6f" transform="translate(229.248047 0)"/>
      <use xlink:href="#DejaVuSans-6d" transform="translate(290.429688 0)"/>
      <use xlink:href="#DejaVuSans-20" transform="translate(387.841797 0)"/>
      <use xlink:href="#DejaVuSans-28" transform="translate(419.628906 0)"/>
      <use xlink:href="#DejaVuSans-30" transform="translate(458.642578 0)"/>
      <use xlink:href="#DejaVuSans-2e" transform="translate(522.265625 0)"/>
      <use xlink:href="#DejaVuSans-35" transform="translate(554.052734 0)"/>
      <use xlink:href="#DejaVuSans-29" transform="translate(617.675781 0)"/>
     </g>
    </g>
   </g>
  </g>
 </g>
 <defs>
  <clipPath id="pf5e398f2e9">
   <rect x="180.88" y="26.88" width="456.32" height="363.16"/>
  </clipPath>
 </defs>
</svg>
